<mxfile host="app.diagrams.net" agent="Mozilla/5.0 (Windows NT 10.0; Win64; x64) AppleWebKit/537.36 (KHTML, like Gecko) Chrome/132.0.0.0 Safari/537.36" version="24.8.4" pages="6">
  <diagram id="VbmSNMpitOyS2P8errUJ" name="global-architecture">
    <mxGraphModel dx="2015" dy="1203" grid="0" gridSize="10" guides="0" tooltips="1" connect="0" arrows="0" fold="1" page="0" pageScale="1" pageWidth="1169" pageHeight="827" math="0" shadow="0">
      <root>
        <mxCell id="0" />
        <mxCell id="1" parent="0" />
        <mxCell id="O6HLDK9tNG4gK17g9pfa-21" value="" style="rounded=0;whiteSpace=wrap;html=1;sketch=0;fillColor=none;dashed=1;strokeWidth=2;" parent="1" vertex="1">
          <mxGeometry x="20" y="80" width="1179" height="554" as="geometry" />
        </mxCell>
        <mxCell id="O6HLDK9tNG4gK17g9pfa-50" value="" style="endArrow=classic;html=1;rounded=0;fontSize=15;endSize=6;strokeWidth=3;strokeColor=#C73500;fillColor=#fa6800;edgeStyle=entityRelationEdgeStyle;flowAnimation=1;entryX=0;entryY=0.5;entryDx=0;entryDy=0;" parent="1" target="xCOBlcEBNlZvq0qhSWPW-1" edge="1">
          <mxGeometry width="50" height="50" relative="1" as="geometry">
            <mxPoint x="163" y="351" as="sourcePoint" />
            <mxPoint x="465.0000000000002" y="161.5" as="targetPoint" />
            <Array as="points">
              <mxPoint x="527" y="280" />
              <mxPoint x="514" y="351" />
              <mxPoint x="568" y="287" />
              <mxPoint x="636" y="284" />
            </Array>
          </mxGeometry>
        </mxCell>
        <mxCell id="O6HLDK9tNG4gK17g9pfa-59" value="/api/v1.0.0/wanted" style="edgeLabel;html=1;align=center;verticalAlign=middle;resizable=0;points=[];fontSize=15;" parent="O6HLDK9tNG4gK17g9pfa-50" vertex="1" connectable="0">
          <mxGeometry x="-0.5046" y="1" relative="1" as="geometry">
            <mxPoint x="35" y="-69" as="offset" />
          </mxGeometry>
        </mxCell>
        <mxCell id="O6HLDK9tNG4gK17g9pfa-51" value="" style="endArrow=classic;html=1;rounded=0;fontSize=15;endSize=6;strokeWidth=3;strokeColor=#C73500;fillColor=#fa6800;edgeStyle=entityRelationEdgeStyle;flowAnimation=1;" parent="1" target="xCOBlcEBNlZvq0qhSWPW-19" edge="1">
          <mxGeometry width="50" height="50" relative="1" as="geometry">
            <mxPoint x="163" y="351" as="sourcePoint" />
            <mxPoint x="486" y="528.5" as="targetPoint" />
            <Array as="points">
              <mxPoint x="163" y="351" />
              <mxPoint x="551" y="434" />
            </Array>
          </mxGeometry>
        </mxCell>
        <mxCell id="xCOBlcEBNlZvq0qhSWPW-53" style="edgeStyle=orthogonalEdgeStyle;rounded=0;orthogonalLoop=1;jettySize=auto;html=1;shape=link;flowAnimation=1;" parent="1" source="xCOBlcEBNlZvq0qhSWPW-1" edge="1" target="k1TD3On16lQonihZNoVF-5">
          <mxGeometry relative="1" as="geometry">
            <mxPoint x="884.9966691175159" y="202.98898065913386" as="targetPoint" />
            <Array as="points">
              <mxPoint x="620" y="149" />
            </Array>
          </mxGeometry>
        </mxCell>
        <mxCell id="xCOBlcEBNlZvq0qhSWPW-55" value="" style="group" parent="1" vertex="1" connectable="0">
          <mxGeometry x="575" y="522" width="96.12" height="87.65" as="geometry" />
        </mxCell>
        <mxCell id="xCOBlcEBNlZvq0qhSWPW-56" value="" style="shape=image;verticalLabelPosition=bottom;labelBackgroundColor=default;verticalAlign=top;aspect=fixed;imageAspect=0;image=https://upload.wikimedia.org/wikipedia/commons/thumb/b/ba/Database-postgres.svg/1448px-Database-postgres.svg.png;container=0;" parent="xCOBlcEBNlZvq0qhSWPW-55" vertex="1">
          <mxGeometry x="26.84408391047439" width="54.92161494169367" height="77.6040941693477" as="geometry" />
        </mxCell>
        <mxCell id="xCOBlcEBNlZvq0qhSWPW-57" value="" style="sketch=0;aspect=fixed;html=1;points=[];align=center;image;fontSize=12;image=img/lib/mscae/Docker.svg;fillColor=none;container=0;" parent="xCOBlcEBNlZvq0qhSWPW-55" vertex="1">
          <mxGeometry y="55.76855850758261" width="38.87980669807" height="31.881441492417395" as="geometry" />
        </mxCell>
        <mxCell id="xCOBlcEBNlZvq0qhSWPW-58" style="edgeStyle=orthogonalEdgeStyle;rounded=0;orthogonalLoop=1;jettySize=auto;html=1;entryX=1;entryY=0.5;entryDx=0;entryDy=0;exitX=0.5;exitY=1;exitDx=0;exitDy=0;shape=link;flowAnimation=1;" parent="1" source="xCOBlcEBNlZvq0qhSWPW-19" target="xCOBlcEBNlZvq0qhSWPW-56" edge="1">
          <mxGeometry relative="1" as="geometry" />
        </mxCell>
        <mxCell id="vbnjpDnbafTEZDlO4RGQ-1" value="FBI Most Wanted Web App" style="text;html=1;strokeColor=none;fillColor=none;align=center;verticalAlign=middle;whiteSpace=wrap;rounded=0;fontSize=50;fontStyle=1" parent="1" vertex="1">
          <mxGeometry x="-51" y="-36" width="1435" height="98" as="geometry" />
        </mxCell>
        <mxCell id="xCOBlcEBNlZvq0qhSWPW-1" value="Wanted Api" style="rounded=1;whiteSpace=wrap;html=1;" parent="1" vertex="1">
          <mxGeometry x="544" y="209" width="184" height="83" as="geometry" />
        </mxCell>
        <mxCell id="xCOBlcEBNlZvq0qhSWPW-19" value="Auth Api" style="rounded=1;whiteSpace=wrap;html=1;" parent="1" vertex="1">
          <mxGeometry x="547" y="358" width="169" height="81.5" as="geometry" />
        </mxCell>
        <mxCell id="uzK1g9B03LPP1aDm-Dno-1" value="" style="shape=image;verticalLabelPosition=bottom;labelBackgroundColor=default;verticalAlign=top;aspect=fixed;imageAspect=0;image=data:image/png,iVBORw0KGgoAAAANSUhEUgAAAOsAAADWCAMAAAAHMIWUAAAAdVBMVEX///8IfqQAfKMAeaEAdp8Ac50Ad58AcpwAf6X7/v71+vvy+Prh7fLV5u3t9fiJt8vB2ePd6/AniKu51OB2rcRlpL4dhamqy9mWv9FYnbnO4elDk7JAkrGhxtY2jq+As8hfobuyz9y81+KbwtJ7r8Zvp7+nyNeWz29CAAAVe0lEQVR4nO1d65aqOhJuk4CCCoqKggratv3+jzjghVQuFRIEzp61uubPnN4aU0mlbvmq8vX1R3/0R3/0R3/0f0WLzaG8ZMfs/hPv86iHAaN8H5f3asRteVj1MWA/FG4uE49RSiqilDLm+dkhDzuPFyxvGfVYNSJ9jTidZdfu4/VHywtlZCJSNUNGL52mF3zfJ17Fozwio7tl73N3o2U2pfK83vz63m7lOFy+qwREO9yE0Gn2X3IbbKd6Rl9E2ewwtx4tPKcewuiL3ek2GJAbI+XEOLUXu9uF1WBRqZ4FdTSSD8wTQrdpK6eP+Xn3dm6jLXYWJJreRuBMobtnxerksbdmNRWU2ClVybuPxB+gHbOd3YPbg2GoM7XmtCK2G43HF90VVmvziouhn2I6OU/wc6odkY28swdPmhPzSVIci6TaQqY9ecS76FRyuPO0n66HmSTFKZlV/0/6hGcSkt4pn4oTo7vr24+brzfxSZleTZTulYGuOlVecXeKN+vX0oTLfSYt33REbRzORB4Osuqp3MZqo9WtzcStDTNVvxHG7it5vPlBPNKz8ezsjsK5bbWfCa4n1TOg/jf4yErVSZQdN/rf3EJRoaPppyWUYIb7gcudyq3HV2Yrb2p1SH/W6GgrqA2nY7mLBVhhhk/uq3YRFMNJk6dnsUiUf6Gl0aFcA2ZJ0SM/Btrw3ySsbX2ju6xnCbtWf7/K2ouwnzbXeQm+4yGi3jMVbr+4PkqySrzyq5RWoFJbFm7zho80zsau+A9SvVqSaTOTxJXKSomhnoZId/49zzVe7EIZ3xFb1R/8GGM/4sWWvx2AL2WdObCmiJ/Wx8Gzo2WCu8+sMOo3gfbg14fPQt0aMSKJy/dKLCyy3tQHpY2A0OGju1PzY0x1+UyUy6f2OeOJm7/HN5acnL7YgbgIE+r41SBT5Zhlrt4e94wHF2JuXOmP85fPivtwdh7jpxmDDW1iuSvsdXDTCsmqdjCSy+bc06HjWC5C7rFGmMiWhybOOeSgibGI7/pdN1rwVXUONeapqpw6MAska9gDy4MN3964PmmeahMQqX0C+UlXvzmww7pOB76odmnfhvSsdmAWiNawuRjuIDoelnCGeYkkdRRjbvWGdRPT5neOTt8T1RIRAjrieGaPzZdTp+85UtjkMGnp8r2ggGqJJktBTdHCSaWX7++SyZAXldxrcnMQTzJrEvNO7h53Ewf1nJb8Z1x0YKbuosSsy8njtqCLO2NN35xXh5/Z+ZCt9x4Ke+07+EBgwb/bP92ZuPg42PESuvyU67QjZJbZn/+oMTqOkZYb8eCVWquTXxi4UugBC2Ls/doOGDRi0iF0sCfuSkxseV1NBVbh18QzO7XVAMGkMQZDOhNxMzlbz38NTalsSQWrS3zLVAz3/qlTSsORGtNma8YjeKmoekghdBzJxNJbbBwaNyPvSNvGjFvmmmDASoiqz8S1sAxnk4ZXu5xtN+K82k3rLqhanYyuBSVtZ3maBRyH14nVvt6ACsauQ3Kopj2r3OA4++p2XkU2sOzQVfiUTVZxnPPqpIcjwXzi5kHAI9B2H2UkPRw72NcAGhSjtG3BopCkfeBx7KuL33SB25qu9rc4/tned1l2PBVFcToes+yy+4kPt/13Cj5JL20DBzxtO2Tq/8r94TZbeBbvNB4Q2SdKFtDjT0xMkXttjh/wh11zXi7E4xwPdXKCxeq2PWpyhrZE0+P99r1G4/A153XIOCfn4ZRGYQbra3xJWb2FVthClEi92WyWxde15qiYJ9Eb8RyeHKsvNvGRef6HTMos+x49bfcSw0C4HHOZTsRzMCCcCvJDRhC02uf81gg2coxXXD/wW6FBczDhRMqthXl88gZiU2R4mpTfT9ZGyq1x94zsKiVxO9LB+eQM19C9Q3VCd80vOl12OxPPzSblTFODMDy/dMvX2y1H7UrAxelgVOqVgeZ1MnFfKwDWHNT1h46T7dRqf8FnD6rEfZYmlcuUPZ2nJE2rjXr+48PNcBx7YMTEygUNXrsFRfZzO19X+XoR6b3KIFqs1/nmfNhmJ0cHZNB7uvC3cFr7VndPprN1DUFNJLm5Xmja0nrrmatKak0JkcXtbrxCwg3BrM1oE+rd7bFR9rTKTIVCFZtemh1W8wucnLv5C+GYWbSJs4nZfFMv61uSNwW6pbWh94v4aegBWLEbUh2i65+Qw8WmTEwbTFjRJyDmmmKc1gbveFu+1U4ARLhjguQHSE+T/IhW8YmiNTyEpX0FdxsMS0gqxy0Wij+B+SVpN0x+AFLGggENVz+196KfCkv62Nscl97sV/K9ITi+M0odSrF8DCqvFBMwr/g0wIsu2vKZx+hqihhkmD5I8QEp1qTcFYwU5/byUdhzMNW5TWU1G/N7VvIJlAFIsS9nCkNDwaK5ks1MWtAvn4cSrgMdbJXnxQjmleVwHDhuuvKzpOPJiTXiW5kzDuCV1hwcpQ+hglDFSbEMz9oSncG3h5hDWqQaBCyJ5xyRKB3YDbzQ+KwuCpou6b6gcVIJ/ZrHRDPH1Dkxo9SU1Fbst2aBbx+F3qhhfu70DdZNuGGY822tNzz4VS0/cc2kbtWqmrcF43frwoGN+RI7oVr0BPxiBqWSH9d3zn+jlJQSzyWuDU+ybABbnWvR0hHUJ5+nvLDhAFK60X4b5bT5J2tPPJLjSKGak18xwMs6cKPh93HLcgNicuF/5rchEIG/l+t9qC2gcy0lCAgrBVXDNTE3CEtQEdUPShD4DByyxVP+Iu4yKCVBJsQq1luLPidhR0mx/WqSxMDe9FQQBSImbndAaliCCC2OIrdWSJOFyCr1FbwUv/ZvJgHrzvoCugL11CwfX1KmWJa9tEe01fZEojvCjhrB54fmfVsHvLr2XHwwj6Ko/TyBAq/3sZjzJdUclPlR0FE6KIo4DxG9re9cwZXhCwgPKr/arrrz+JT6zGN+eopb/MgS2J2ncHH4u75g5iCW0bdElQJGkCAdSbjVeWqIAK6PafyocnS420UrN8y09KEyLNeKyA1dLqhV83ESYZIFNhNQe1UbMoAskFUGpLmmyJltDcJ8BoWCtR0LQc0V8pVIgP0xg5AJrRQYviq8bKSufZrb2ZurtjsIpQaPDrqdc6HmC48tBMnEMY4wiTdhF3wO34IQlxqFqZK+Z0bt0eGFPqBavI79gQgbLtQvUDZRuA5EmRllHQiTF855Iwn8Mik44hcG7IiecZ56J/485I4ENfmAMMeMFf0B36fNSvIsMLuC04pj0gtDfkMEFQsEonYac2BKS80XZBaZEq9sbUUZASE+8cIbvF4mM7FqWlkutmR2shLhLxFZpa+ShZmPNvRYAOQWeIeYW3Zru/Fi2I0bzOvwn2wDV0WgwECbDYIubSuW5q7ZKFSy1u03Uugy7XQ/1Jrh+dY509oJWWSLdHeTqov6IiynCwjVarp1sriLBHuhmRZIWhm13ItmygzQFVrZXDSi1uqiLtSsfXrAUmi8Vu7Q+za3prEiW1NsW0/t22qotF8rCWErdOlNm1F4DQkW3yYJuJCFGD2tS7v7Y9ReKTocPSuQQNcNRRfwKNgSlCsfQnQGqgRoCf1Z+cRaol/4zypVPMA7sLupvoobi5t3S9gBXkGQiQNYpkTXuOfBj6ttukhCwmIrNLeFQKAoXWljsRBHJpSjgO+4bduIrRDqooKVt/kRDQ9o6C4cF2tQE5+fZFcWmnxZCwk6B7+r2lvzihYCCkbLug4U5OFEVcKl2x40BA6ioVznYKeajOD9xOqXJOLujqSBQE2p9W3iHqS/8QscSzVs1P8wn2VdBgog1aIorDvwCvB6FE+99MEr6CNjj8vLsX1ddJBhUH1hyL30IcPAIbW/VUBlGOgm24UTqqrwnjtXW92ENyLZwCGsb+y52PlihApsju2VuBBt4SqjB5sjeCPWfWh4qCOHuzwHbikkoWjh0eUOrX0JLLrKPbvPScQFX+aIr4Jlh4GzuF+4M2EV5phaikmetykFDWiJJ1i5WrdEJsluLmrjLZUTqppy2fe3s7A8k6sszqIJE61CdTVSQxNrSvSnJ/ushpXnBNO6ysiJKZBXaavG6mgAahWrY0slb6ulxw7SLCr2DYiaRYlPoIIg8dna9MZHAbhqsqo1jfglXGhqtg6ImsV18UaXW8PCOouNRX9S3VarBnqZMbcG0R3tvUd00zec2DZmCXpanX6oIeBAaz8MAbF4xeeT5lpUIKo09m021sMWd6nLhU9Yy608jO71agQsYVtfsH2TWCcZd4txG7s162Kk5fiXYNlS0P/MnIaB/c4QGYDGoaV7FLwdBNlJ3FfVtPcErKIyCVLu7CzehBoIdkvCDkcMmTVl64AIewFAEBjaqRpe7zBA6mCQHgR8CKMQw9tmHFcGgSEUvxUFsUu9wtBa4RrygN4147Ec7DZ8EKQJF+IAsmpo5SI4Q4aOb+BHN6KtNVw/5BqQbg2BNcRocOkDaOhwIQ7FplAGF+sgYEMwJG4g+ZMgDPBN0e9tIiPp2MT0eSgwtU8L/T5kHxYClJIZ84RCUwiC5Ci4xiCXxx+47Jud6eCWPKqoHv+jzEtuJg9ozll7ZSNAwh6bmUuoK/ZsnGpdY+4Lv87nN/C5WpzV9e/9lBJK0tP2t8WIA5f7dZEOgDBafVYKLdhb+y5JbUf9QiPHAKP32hfY8t/iZimcW4RS4Er9HcYBTazJKCwK2K/PplGqBEgkah0I12CN87A032N3InjPv1T+pmqdgwQ0nVggthcSfJgV0rCgKUxz9i9WdseFQKkEB0uD20RJqS0LKU8ysSpxiKSWssS7CyIHFrcZD/pc/TxuAzKy3Pfhci1anbn86geZWeLwQ/kJFMoOfP4h18Lg8IPCsF66KoEUOlR3TQ+CCeMzCpTyMId21Up3+soQNuIKSinAJAB6rY/WJTwlVP02mDeobWisznmiVGI4ddKPFffVn/0+B4g1P/clOBQ9qCeQfBRSY2Chn9IT/M4E7ftYa0fB+laTLD55vGvF7YvoNwDL/HGfURhrC2nDkAp/nx+Iwimhzp2OIqVGpwbAbhf8hkCKagTc22f9Aebg+EmxNljpr/XdV/Ox7NSlOuigpk4I9cCPSaIC7E6HDgSQQLZIdpBAfrDQVDlr3AE7Wmi21lATGkH19EnhilCFKClUczMPduquFpWCJkgKmOPWj5GFkG3l5JugJrrH/lx+9wet4dZ0FAJu8QcVsOACUFcnjk2HeD+ftnNaH1FuE7nqRKjN7yrFsGHxVAqFljHGKvGOfXQQyU9Y+oR64CHJmkqY/+i2yvD9RqEOI7rufKznAvFOfbWZWxXY3tbt35Lt9a0RhF4a3d5BhBLcnJLFdZswtHEd8Yo++6TkR7wbTMUvm93Pj6YaEIrUqboZdnJ9xG1Bft7NcD7rEvpj360Dl3fjO8N1R8NjeV3swJws+rDKFAGbXjkuv/eibmNl+l12H6LJf3SYtfU08oWeRh38YvEGu7WnEZvcBmsb+G0BZ4dzjd2sbBAr3q2R1eOQPT5hFs2GKEmOu/i236yWa30Z6DxaLPPN/tmCzOK9dmEpx3oryI7q3OijOWlFft0+bjZLk6R49JWb1f/2bjvXobXc0G8FcbgM6dIE8vEV0rzY3WEEoWfgsA+Z8Ri6ONfNPTtM9hOizCtuRcP2sC8P8rbk1ZrON/d0PH7rjm7bzRzK1ljvIr3ct8V+Nxmc39o7m933L4d3/HeRQBZosb+ndRPXLsevnU3KfOCFVvQ7Tk9e0L5aDtTz2yVhJl+uA5uVgi7uv7nEEXgXaYjmiG9qaV8d5r000X620CZZeV3qfJGRemhvbJY0WNfN0bsfYZJtb5s1np0DwjXkS6HgDai2TKGE83k5DLzt/es/Hm1qhU9O2xjgaZhBe95zt6kdJyfgfJJl3Yo2LuvXDC5ZRZf7tozjw+13s8qXMNmA43/eNNJbBk7vccCYxZhEhZf5Fv4BLwsc6V0k17dHDG0thAYepD2LPtLbIz9OLov4pgyG0zg7V1WN/AaUXQt2kQ0EziF8xirBO85bQY0raglE34LYm2gRfDnM2vl2+9Tckv1Lb0DJj2aqNnkt/LtlzuZffAPqS36UTeke1fKkG0L/4BtQDxKUMUlFZiMBYGSbdhxJDze+BLHu4ikoY3HrhE23L2wNeGA5ZBLm7OA3vUl4pwyCNsR3je0z58BvGvLtzE5vot5E9OqbWRFtY/cy3YNGegNq1SmcEjubvXZWZNXh+VcY0w2ZNMVjdSPdRWZrN3AugF9dnvUdK1bX52DaKZO1saSBnfpH8hyMP9K7SLatGZ4k9iKcrQQYoK0P8SIAkRvpXSTrfgAPCgQHSgSaObIKYsVh30UCyGy3LwYyxpGz6vaS/NcXx19e3L7oSDwx4Qo6xJh1ZnU9TlpCMDqu+Bo9s7T9rUyJ9uOYnEoR8xIO5967gaZxoPOuwoKZ6ZBquKJmlvYecUOSgpqYC56wQUBo5PpdR9I1J7cnqcjdUZk/SN+afRACAF73289S2Vf3oAw0TBj2uAplg8xR/qJCRUP4aN9fhEAXejaoJ1ETaNntpvLVlyAeYuwYq/AikoFfHayJl/na9ClsKMwQgCjxLi77wzFFatP23inkvBoLBUXaGCAulNhfQQHYrj+4CEPAILHNEEXYpr7Iy2wHAu0su8Ed3QgAZy1jsYOMsmNyKSy1dPdAbNj5PS0nAtg1G/W0mvmSUvIO4vvxtYiw1MKCAAkeQTPVJGBJ22aYH5XGMaT+zkpGVxDv2LZTEOvf00sYrQQ2lph/c6mCytnpeRM3VwonCDNzuwJjjbStUutYQwLwWwMoBzVRam1Xtbf40gnpSBkcPxwJTX7YUatEF7EGgUtn0InOZ4ohqs5trA2MI6GR/MAv+gokZMaIt5VXeX0odDhypZOErusE9ZKDzO5CrPlsrc7uk6ROVdQrbvnz3d4gyvf3VFuDQGeqgK7UrX3UTCTb/WvAr2ilLJz1dUgvJHezqd8LJUmSVkLI9Ig94pW6WCEotWUTNY6rMlVpogOHe0Om+zWkKpZHJwUUJuudsL1YKlaJDzjRDdjpub2PqHR4WpmwiWkrNkqxrom8IS9dEbJmltDWu8ODPfJ6/F2t6YqX2kGiLG7H8YTGF0nBuo19Vt+0xh78BXNjk4Nd3W94kLvFaMhPRvMhFIpNb3M/KoNdtuF6Qt8ofhD9b+T3TYv7FL27YLR0tYPrErFY9XjT7ef9DT6jaDtTDODjtfWyG7h39ZOqiOtKQmblwJlvKwpW5cl7Vt/QuuDGY8X2+sm5Wux3BX2M+ITdMi/puHCDUJhfb/Hu8hPfrnk/kraoR/zZlfF5o0WH/9Ef/dEf/dEf/cP0PxjBCz9XKjRmAAAAAElFTkSuQmCC;" parent="1" vertex="1">
          <mxGeometry x="64" y="304" width="108.06" height="98.4" as="geometry" />
        </mxCell>
        <mxCell id="k1TD3On16lQonihZNoVF-1" value="FBI Most Wanted API" style="rounded=1;whiteSpace=wrap;html=1;" vertex="1" parent="1">
          <mxGeometry x="1040" y="313" width="135" height="70" as="geometry" />
        </mxCell>
        <mxCell id="k1TD3On16lQonihZNoVF-2" value="" style="shape=image;verticalLabelPosition=bottom;labelBackgroundColor=default;verticalAlign=top;aspect=fixed;imageAspect=0;image=data:image/png,iVBORw0KGgoAAAANSUhEUgAAAJsAAACgCAMAAAAsAu7QAAAB4FBMVEX///8ASZDOEUEASJH/1SDeswgARZIAR5IAS5QAQ5P2zDMAQZQAQZIAP5P88vTKACjvw8vKACTjuAzRDz/qvx8AOpbrvxHyxRbw1NjhwEEAPJUAJVuzKUDWXm4Ak3OqIFTctSfRrCgAOIkAnn319fX6zAD/3mQAJWoAAFbYtjzq6urMKUeKDz8aG0QAMIUAOoYAAETWUDnuzE//89PU1drYuEsAEFsAgF8ANZdwCTfAXmzcztakpKS+vr6RfQAAMHAAADsAJHkAADUAJ3X/3wD/2Tj/40oAKIaujjUAclLZyEv48uAAXTzv3qbt37i/tYrAoABNYnumjg82VYy8r0KssLynqGqAhJX/4jEAGXgAHFYAAGVQY4rGvV6Xlp2Ri0bu208AABuUi10AACk5SGqbijmEgGkAAHUASH8Ad2QAh1dKTmIAAABjZlW8ojjmzXHh28Pn0YpvdG9scn20pFp4hXaQmnGknX1RYGUsO3OjiUlZTEtzgaG2tGN6aEeVn7QvM1VcUzmLeURPa6IAGon/9UYAZHIAZYIAVn4AIDYGd30AUFMAM0UAZV6tRlDw0bndemIAMFEAQxyGLmdODT4ASmLOrLcAhoBsLmcyCjpEW09rlofBuaYuMDccGjQABpGHvF8tAAAgAElEQVR4nM18j3/aZponqkA/QNq9Y/hx4DkfyMLY6gT5iHCYPRNCCMLFtWMsyxgHsIYI6pQxOAjHxsY246Rtdtru3szubG93O71/9Z5XwglO7Dj9Nb2nnyYEy6++en4/z/votdl+QuKrt3/K5X5KWok7HMu/NIiradmfCzkcHf6XxvE2LXX8TidgcwSWfmkoiPb2Xn++HfA5LWxuz8rYJStv/9rfhFYivsTybVOGy26f5wKbz/cUfcUvrXR8/l9K/5ackYjfH++sCB3g1mts/khiaeVp3OkH+gUMd+X2EvCrg+7uj0R8jsvY/BFHxO/xhDx+sAx+aen230YFLR1btkecnad7yz5EAO9NbPaQSR57++HTTiKeiyPB3967Ye0fSbypS09D03a7PbJ61+d2uxE4gPQKmwk2DBTy+Ox311YDgelcBHmWpz7hZ4UWiPgQNLgdgHOvrQKbEJ/MPyK5nAd9iETsCBuwze+5uzaLsNkj8Ej+SPzn9H0dvyey1zNZAdj8a2tutwPAeNqNerNrGEaxWDSM/XqvvdgOeTx+++rd1dlAXEZMXlmCCzs/H7RlUHC4H/AijoRqd9xtt+vdCuH1BlkXTRAESRIE7WK9Xi+LFZu9RGMtNHoO31oCsfZncyl7Po9nJCfA9iBS7eoKwdIkDv8RNMMGgVgEkiRxHCdcQUwpNtdzGnqM0JqliD+lPfDgBEYfl9w+pEMgyXAo3tkoJoM0jpN0kMWVStHo7j/bAHr2bH+/W6woJBtkSAwnGS+2PwuMW12zPJ/nAhyPlv5RtNTudJ5atJzwI7fg8a+urW4bO14awwlvEjMOTqqanHNqhXWLCprmdGrVk4OukvTSOEaybKXeXl11o4jhj8wuL5vLdYB+HBOfehxWGALr84TCYHy+yOwhRtI4yRJKcaMDQNrbu61hP50WLUqn03398HxxVtPivS4wkMAIhtAbIeRvwPOZyyHxOh0/zjTiOdOdIhfht5s+q90lGBxzJSvNqqytHx2m83mOphmaomMxkctkYjGOpEiCi+WjrfN1LVc9KMZYDCO8Sj0Mi3jQaqYvhJVDP0aqS7DG6gU4eygcahcxBidYb7cqOxvHOhdkaYbD8cpgkB1IkqEKkpRSFRzDMAojmSDXb2075WqTA+aRtFL32x0XIQT56dCPiWXLkJM5HRdBMrJYDBIYHaxsaNqi/iJGkBj2fHAmtbgzm01t8albUkrgVUGH7zFMVCqKSJFcedgoyCdFkcFwL3YUdrtfY3M8/RHYUL7oHEk14mtiNEYkiye59dN+jHBlMPK5IAg1viRmJJutllJnVCMl6EIfYYupgk1IzeM4Q8fSu+u5qpGnwS4qDb+ZTeXCaNUfoXBLlmKsmlGyR7hwmjYKcluP0RSGnQlSHyvZahX9FgCRIFYuZKMzkjScSwM0YGVqoshLUeWsQnJ0rL+oFboEoAsezr5+YPcPF+pt8xGRVN1hgyVxb+Vks93KE5wokgpwKkr2bQJfKVOsquqCLZWl8pKUpgA4Rki8LpYlQVcEm3QWJch8vwG884IZYRu5nKUobt8P9yIdFAhMcHUQJ4NtyLO6SOCKypeyA5sNYGQEoaWntsQzqV8RpHlqwAslEWETJSFKZiS+hQmCAReRGMmlF+XqDouTLiM+gub/4UJFaouwxeF5yeC+VjjOk4wYk8D0F1RBtbWImMrXVFulAmo3U1GjVE1NLWyZ2M5sJXEA8OH/liFNgOkSZKy1rtVFGnPtNCxP7Pf/UGi3TXv3RBIVBph2Ih/1WTI2UOf7NfghLw1tqp4W4ENpmB72o6w3mgmWy+UMB1GfxKOqDVSwNSPxUmpCT1MYXunTjLibq+osRhJNv+mAIz9IqPzSU7eVnvWSJM4YcmAiSBJgmHyJU4QibzM1bKu4NfeoDPG0+2zj5KQKdNJ7tm8UK6T30UTJmOurNvV+USSBlUTKVlIoV7n9WRMibbAYQu7c73i69H0dML/c8UfsPgDnb0J88m5sniNFS/G2WslIc1KpZasVa61o7IVoPKwWIJ4W1huN7e3tRgMiqpzTCifNyidlFqvBs8wDMhwTSzbQxRjJ7cpVErRXCUElFPb4fZ3l74FuaS/hRxWU3w9FSjcIy3ScrRhOkhXboWAbihQok6oXuTJWfJbQtNnGYT+b5TiOcdEsw4gcl0236osBM5xyM3oxjaDhmE343cTzlEK4+uta0QXGtR5ZDZvZgz+x957ORPD4ETCkDxEHLOI1tPU+w+CKKKolw5aaETG1pmfLxY1CrnB0nM7HCJwyHYe3HkPBCv5BcN6MftoOyNWumCeRJ55RbYZIVGyCniWyPbmZxAisbmYPJrrQe9YSt+MIGTJxT5HB2K68mCaYgWBTxX4/nbJJRTGdEY2qFjrvpzkCxxAsRCSmmSHBIgpMun/clrUNjCEyQgp8MRWTQCfUKMmdanUOI3EAZ0KLxN/fCXc8qIJyh8BAvQfyaZ4kzvgFQegDQ87AJ8SwA01ut15wFPUKCmTjwZpc99I0gb3GR3gz5wW5WiyXBEkXQRdqc6otFaVix3I7huN03WNC+z5xVai6UXwHaMmDzdMYhYFDuAdOPp/FVSNa3i/Yt4cxAnuNDCMrlZcvwTejYuY174BwTjxel0+y6X6afM4LWxhfa5UzBHuo9QAc0/M7oSbafl+28SuJ1bt3Q26ka8yG3AJoeLEEYUBCwTuTgZDa+CR2CQBg0wPyZzLQZ54hcflHGJ3X1+WNHRZsqTgvqDOKJA04VzqeEIFzPXvoLlSxnfdBt/Q0DvXl6trdVQO4Vt/8g9d08xnVVntckowMcSIvDmMvQbkgJx8DQKTPodrL2UE3x9gJ2ghXvmS43bjWTWIpyO/ux854QxqItB5v56EMWru7tjY7Gwo8vdmTOO0meVYPXRh7IO/GIAsTQd/Tko1vzcf2tcCQI0ljnYD0tzvOPDzZ0/zy7Cfj3xEGxpB075TGaK4ur4vlwdlQVGq2oWorinRf63EUiS2GZ1GBPe28CdxS3Cwn7Q96NOZtgq7RNV4dpGMkRM5SFNvY3M4CX8gK3MgorHHjoktO+8P2z7BxbGyvYAQ3No/hOyoIwbSbz4oDCbJQozb/nGN0rZfHCCURgJpStvtvwrYSsMDNEiRTlI84ClcEnhdUZVBqlSvTTt2EQyodO5SorXEcdNHeSJ9u1tlxLaxM2+Oa30qECW5brseYge2eyk9kB0IpyxxqzSDm6lr3zL3LxSHcy9YzOBWCqMiNDKhONqW2wAykYWZfbkdNZaK93Y4m2xuxcba56n/IUEG9cckSgk1UH3aDNPoH5T3Uqn1OlSS+LwoLkC8Hj+UujVTH1KN3mcMyJAVPwya4pgvLF2azOFeO0QNbqqUKw08O5KMsaeaNRahI47LcYy/p2w5K3Ij0JRP1bshyTgYHR1sybmmFbKYmGVF8aNhsOhPsbWZInAyZ2G6DSl3XlOhEloXeKihmfCOJBavOPkme8an+I2FB79/nNuTjDGWBaDTas9P+3GcFYhwcNfbnCC57IgemPf5QuK3jlnHk21orNi/ikLNLCzadjPXiItg76vw4VmzL13ZzOhF/Bww6HEgwOLu/2WK4Mx6CTLkEMTQP0GKj++JcLNvUHEeLq9vYOwlvhhvnBc95Jh/DL76KtTWdVVIqhJeU0OLItLbNYsE6clsPl6/vNHUg1/OBuwkXaVC2cw6kacwJalmVhtyGdsyN+y1Qxhgt9t+NDeuLdOzA2aLH8caOtEMOoA3F0rB/lqWLchfKw97q3TXULktci83jgQByt0ngweospEK8DarNobijA9f0cWjgjJ1gfBRFYe8k+DmpBPRLMYTK9zQ9o0JQFcUKJKrstpYmCeXuqtnLiV+DLWEGXnuIxtmD3JAkxFaLt6X0CpE8kI8vQ8PY80u+7R0UrGcv/yrFtbV+upWGihCiINQcgR6LsU3IFSFJv6a1ycc9ZsLShMAnnwaJwUAUJ6AoLmX3X+va6xvcwLLXJL75BZ5PBNL08wGUags1SOp02YDY1najDt27sIU8bQx7US1ESQJsHGcUPrUFupd5C8l7Q3sTGPxP9gvVFxW4o7GVyRAU13O+wJiu2da+HlsYUr0i7TLkY5qTVH2LHPRrc4zWMKXyZnpxxX0J8sZLzGVoXauXz2zDDHamDvqEWIBo4m2jTPuaoCoEAFt4kcWJajtGDGx6LVXh1S1uI5BGD5ts3gQOxyo3spOtmwE3uCsX0+pQAZWxqengrtbH6SJUAnbnlYFrKQA+MhyuEPT+ZpQENeVtxn2hltnf7JMEQzKGlr/hvuClFrM3gPP21hnahSnBXiEjQm6zMGxB9ZUpbLswoh3xOxyzV0Qu8HuoXDwisKDWAEUvGRBDVWkG085j+kYXwzrO5FV8CFrk9XqThnPTfpz0vqbg2yL2PtxsVp4VdiFB2vZSfGoOj4E7oXflNEUbbrMV8WbYEuLW1pS9S0PtAvkFwXF9yHVb5Y1QlGKOcoWO5nlBv3UvbzMwe0EBe3u3bZ9NILK+aQ8v/wJOuPIPtc3pTXh45lBuEVItQ5CqrSSKhe0gRrbdZrGeuKRzy+7RztQsRoqFxRhJVAbPY2V1YaYrT0BdwC3GNVk+2a+8pT0P7K/JefRgMSBrGqQe1hcP3POXsgHFeJaQp7XNMJJ8sleIDWyDQfqsNIczXdA45tBndmB8ntesW+pYXR2fL9JkXcZmHz0LFOFZfSgWGnlYx2VMy7nc5mbi8JI9JOv2S3QeqAOy6QtoAG7xkvPZOQ844yiBCZpItd1YzWa7J6bFPlHWwFSDbtS48jid/osEfcUUM+rUuX1BMNL1PDPgSzXBZtDepjZEDQOiKvvk3NEwMw4Nx3pjXMsFEnW9nG72OnF5DO6iOA6OzvQTmt/+2T4CB7ldlrs3MUFwJdsc29Qw3FX3Ww0/p99pNnGWHCHHiHzbQVKRj4m8YDzK9m1qltDM0BTcsK+1c4UXl50IrqyZ2AJ2e6LeLGKxbDqdzmbEYvegan8QsLA17l36HSq5kVs8X88ZBEpntHqQUrIVlbeVOEU+pMnKCBrqa5r2GodPI3hFMvis0If8Qyj1M1KtfODMwIJkcVsXsbDGYpcJz/4B3V6v19N9k9DWwsQQPkRPN/oeVBHdmruca4IPcfRZUW8hjwm86isCuDjwB2muN5uniLaFLOxwhEbew+nMAbyQo63g+cJRUJRSgk1Q+RZWOLXKA46kCL1wWaCIC7FTJLZodM0uy/FCoRddDAQ8Ebs9PJE5R7CP5zBqdO2Igr1dF0aRpolQotYsq7YFKfWYL0Ix3SfZJgBxoP7yaNBkCU0oADqnp84SRU0n8eKWXhIgoTTk4WttYY/Hoe2MwPnt9nY73JanEWkB2bKD9myvDX+F75vQdsZ+kdTHnpCpBz7RhbmzUsm2IOan6yyOXaiXY+SCzU49glekgxuhMkbhFMn1ef1FYXs8ERpblPh80mxbYclwrmFfl7WqCQ2QWdBCD3oP2k774hwFF5FPnjBj4MafsK91P5EkY0YxtiCqFEDkbcswX43ALI/a4R7w44VzS6soDH5Da10VQncIkpic+tyFAe+S4fXaQXH/2e46uI4RMruzdNAs1k8XHyyiriCtfDr1kmCuWAhBWc8PUL89jVNES4a8B9I45DBeBYelgOlV/D0vWcm96lKRwY3Zt1Mj+P6LyZ2XU5NPdib/MQ3YHmxgmfJ84xXPEM0q+cwjUEXARtz54vOpyT/iT77eumItQtd08V7U+gdkIy6yYroyn+dVVO34kDv2d2lXM5C+WALHCrtXPS2+Mzn5ZPLO5J0nc6ZM5Wr9KCGPQwP7PDpH+gbY6C/u3Jn89MmTqS/TV2UBwXiTvshdmN66F8Nmzabk69R8xWSju4In1xuvNIwwclH8iuUw5pupO5NAX/2ljyUT2rSmXQY25njnyZc738ClcP39K7Gx9cKrjJruOssU0UM908jYqJAZF8CDlOXmq5qI3Vh/MxG32PbHL6buTJmMu0clq1b4jCCyAEVef16cJ76A6+Diqa+//stV4IiiHH3V9lQ0nXA1zaRjLNqbAfUIqh35dYvDGz+/WoEnL+gfJyjin/4non++jcj8+L/Nj/9sfv6nLYpAF346CU/z1VXYwFJ3X3GDA0MEadnt431MwR/xONxNhm0WXhe5pIkTfystIv44ZSK78+TWDkb9j1998MEHH/43tMrf/T18/NV//zv0+b/8V/j8wW8msJ2XwLRPAdqTW2/mxObS3l77lXRi8BnHwuHV0Nimbwdlw/YuM36hC7IW8E6K8gY4HO42+RHAu3PnyZ/eje1Xv5kgv3ky9dHUnTt3pr786g3lxZUiacatV9mAq1kQseBiOBzyv2LcirmX4KmQJlNHWBBOpA8J7+UlSYA2+THAm5z8+h51IzbwNh9PTn00OTX55dblhdhn26Az5I7WInGrTIQKR8dZ1Dv3+EfGwHsifp/bFyJBGQ+DAwWCJydi3g5KQWgj12WZYHCcb6bdTX18B5neTdgo9smdj6c+BTud+mritUwJL0skp9tIn1/Ipy5lMB/LlDklIx8STNeBJhZGtWAHQXO7w16imEuXBWlQgVRUREGBYLw1bVYx6vWx+pdE+vbp1EcfTYJ/uxGb65tJwAbQ7tx6bQvkYa9Z3NfCDOsik4k6pwiqJAl87RF4O6LoQ1WyJdW9CNrocLgbXrCRMmfhrXFFubzT3X9W1XKffeaZGFM6Ehh351NQt6k/4Tdjo++AcsLVU1+OxwWmLm+CU9x4dlCEwksUBQkyJXXeW6gzpOJHUcqDdgj5AGIb5JV1Fjm/50KrJpR4g+vmPsEaTlnWcrnQeFce/JuJ7aM7U4/TN2NjkGYCtsknl3wIcxoAjy0/mB0yzUJaLOmSLTXHBasNF475LQKprsTjibgjFHLv0syzgjetz6jq7/li7CCQp4Lp87iWk0/HzQHHLFuAu927QaYfIL59PvVkChnOG/7NOw0PHR6WKdII9MkogjZYyNTXWRwPQNHgnJ6OL9t4oKW7QEWC2VgPUiSW1lVB5zaQmZLitMe+mcDHzR/07c7HwIrJJ5BlWNh+fQ223wK2L0A7wXDe8G/BpuzbNB+aLMp9TkU7K7yUbRY4Cj8HMA0Ey9SuxCpQkXCdNFiSoHAllUrTJ6jTDNWDY7goH4w397AdxDcUUb8a2emv3oFt58mkhe3LW+PPpxTCrdPNNsJWyensGZ+qlYpSv6txFHm+BnSxH72MNksfVAhXdTtYqWRimXkjSlZRXkkUPUM63zofW5b4HPTtz1NgeJOQ9tyEjURhwdSBr5+M+Teie56h2bozj2DGW3SlNJfl0v1015mliO3w7Gx45HyXzK2YBxXSVdjOq0JKVVPSPFmtu8C9HaJ+KDHeQcPBm059PDmKkDfKVDQ5/Ge4/utLvhdNmLCnaBsfnCqBR0VFEQlwFIBtIwA0GgfqWGWuQrKFeh5NAPA2hO0UCVIk3gzQOPZk6s5H4Bk+mnxlC+/Axn4DyjkJjnryT2/HenQHXCns0sRAAI3rM4ZThCwpjqhjRaxL2FLfCaWSNI8XTuk3l7oQKrIF8L2v/ds4tn94A9vknT9PTX380dTX967uf5nYOJtQU6EeNnIiRW+YddE0YtyS9VFTQKb1mJpqgVq+CxvYAoQhpENfXiXTy9jAUYP/ACZPfTlxJTQzvQ4OhFuZR0W+X8khvpkVuTWd0TF5GB9hs9VmoHR+FzawhY9R2jP5JGph+/Ad2CxbAAVASct1fAsCM0hihx8ibHTPlKO10bAXQsoXAJmub7N9fYjtFPW0ZQtXyvSPKLVA2C74dh22D0GmmJlPQRB5cv/q5RA2l2I7UxRJShed3Ihvzov6FIx2NgR2CiGD40icU0pporp9TZMeEhFQNjCGC//24btkKsJ1d0AHLsfTMSJRUpFNoV8ysgbyIW2U11/UgHvI2a0CtpNG/kyNYhVVmLd875UEYegOMOPPk08+33oL2weXsb38I/K7cPmT+9e0gsmKU8eJtCGlWlEI6CJFbkMgsLZnlpaW9hoIHMSF3nr+zPxSmIBK5tr2rpmITAHrJucA24fXYvvwt1umbqKc5atrTAFh69ODSvbRvCgyKGaRgObuHsBaMjs1Zjt1n4VYnx/wKkQPQQkeBMrXrEZ8Yzp6uOPXc9S/vAPbr/81+gVKQz+FEvXJrasXg3jq7Mek1E760eAs+2ydxXA0URiPO50Q6xNWPy6yEaSbzvxzYS4Ty/IVtuv85LrVXqLE4lMIDl//Beu/Q6a/vveXL6ZQZgkp+ddz16zG7BfSaCQSKFU+WWdw3JrlNwfj9/xmI9PX8xLdXFnk1UpFEvoM5JaIb1Y36rI7Ib5B5Sly9ncm8H/5NdC//S9Ef4983T+YH/8NvvzNv899cwe5GxDp5P1LMmXM3Rlz1eDGuogJtVpN5Wvl6jb8xGdNnlovSvjRXlGo7SUrcpozFa4UJa1GDV5UGFike7EohZM4huPfIE//BMA9xrCJra2tWxb95oMP//W+9RG+3JoQv7nz0cdTyFN/tWU+5yjXors4gbkqu+hzsnrEire2RHFGMl5op5CTm28cXJSoaBg7HJ5F5nxIZw11oRhVsKTZUaK7haIX25gd2QWe7StpHHv5+RTcE8xv8hbNwVc7USsbSP/6t/fNPiWZRV3MLPcNeDd06ZMvzeG8533ruuCzQDFZLJi1OeBhlQpOUlQ0nZePUWHv9r1+1WHPj8ax2wrUgHUWz2YymYrUT5o1II517PXO5qnlh3EFKo5UelQGfgry+lJXJQHIMItM6v/8uyk6vK+iLyUD+UEkexRNIZ6jYUxTKSqyszedQ/uqqAZE29tQCFLES1kngxv+Sw2Rp2i3qG0QUFjnldRABdXUWdTxB5YfaJuy/6LxJZZs0rcGQXwBTLvz6Uf/sWDtPsEzVqwrrDyISF3M7y/850egbVNfP05T5MG3gjTqTNMbck4OI4Vm97UsIdVaW6wCdTTUzt5Zu318eIpPQMHgq7tQz0FBX6hCiUujngPNnmhQMXST1q2p8sLeShNu/nJy6s/7KYQslUpJ4NWNS7ukgpCqCanUAgCUFj6a/PLxBGTTD1e+PTax4d4K6nHGi14cleh5XOAl4MjZJxtmz8Hh8DjGejVxFPh7BNHXdFI60/lbtdR8MF6nSUOT486cLJ9YfKGN27dvP1RwMqb/p8myBX5B4Bckm7A77mT0b3kAJkjoD3QReHyK6a7Ar6bN1vSBjFbNfdZTSMhCuOd8SgAwRa5wzhFF1LIfmyjgTRHPoh7XbkxVt2qGxG9BZPDqi4uNtuxeW2ufW1O7TbjBilHWkdgFSbClgEO2BRD0QX+sajceLqRsNWHB1gWGpNCu/yArHsBvPkQbXISx2DiPO0NHjcahWJSzzBm/MKcv2IYKcIZumg3f13x7ag1Xot7gdmxgS80rZ8YWDYEXw0nRkFczjGhZP3WruffwoIYGfPmUBDcHXDXbQurb2w/HBgbY/ZW9WkqQLLEKNRTIhYWDvb2D3ZE+Et6D3LmXZnDXs0KW0kvSHKHUovu5MkUcoR7D2KuicdTHdFs9VVFRS2kyU6mImLbrMnOY81ebHhRXE0xZwl1BzxZAm2xQWiJpjWETD1ZurxxAZg9MS0EFlRJM0fKCNLyoGUglZ3b6vMiRkNn5NCHOcKa6JSASuN2veqp71gSjr+ElWzkoZLMknT9LpYO9BNpnC/bGbov3kTCFlAAGADBr6J4CEvS3x2O1P4jvdl2y4KQW4LqUVEP/PHwdHehFtEMBzqTFcWJ6B7I3Q4yfmrtGKEq9erPhKeIiIij4C83g80HlDAoandat0LAzvl1G6KDmApgA/JVCQ9G1735f+3ZvZWX3laGS+MO9vW+lVquGDFlA/EU2A3/9bixw7VidwfVHquWEhH4RvBvbjJi7Cb6RUPnZ0VaIu0hwvdkXFfQOUEkqicnANpLm5Z5erGargaZJC4gRC4ePH29tSSC9hb/OZIIsywYzj6LFFBTptj9tzd1vIcYiwafA17yWKDZaFQLRLpsGszHUVOrRs0KaSiZy1j7gaH93aQRt1dMLoj2jGDh0oaUKM6597e26jUoD22wpuLlQ++7+VhqjFKGLNvfBJCFipyTLGUtCi6YoPPrYQF9IoJRC66300nXgLFN4BrzNrZmtTPycxbGLjUD/qD5FuBwhpzOXQHttdW+pZaD1Zqi+1nxz78+SKrr9wl8fb/XhbkSFR9qeuvBHEkgbTJRHYYyisOj9rmkIUu13bz4oTmrnHElSUSigzjKG3Cdd4EEg7cjlnNZLtbzDEbpAaxBsvUCKA5uqqi0cY+vxzNtbDJwBOl776/0ta4CFGPDdBWGhC2iBAcBDEHhqAXyLOfIAvEvfMgSeT92aeHMhiFdD+rlCEtkzWy0DCQVFL1qKH3LmTEtdCjlzF4zsBam+fCgK0lxmHofMQdTqbzOOEm9993uQ5mhQSjwDmxUMcCYL6FUe8GYLNR68nnoxjoEk+xiY/OY6JNo5jkm2UqUyI7TQnjJZcbhfbQSavmopbu0Dom2jIC5W11+c1aIkiV7x89bHp7Cx0S4ehaXHdmxplU8tIB+R6vKgePBhAQTc5VOvNjXMX0ijt6IurRU8yGXpga02FKS+nm1qfQrlRyOX4bhoJD31+0234vY1WcKQdzJG6XllMDhTW1GtN94YpK3ZxEuzZUQJ9TIEMF7kjiFUQRCFOGWrRccuMn+DLFbGe7MVeZcTbcYMOKwS49XAwwd95hw7oBsb9l0JmN7Y7W6TeKxwlDwDS4MAIA2Zrpwe87xY4ooCR2yZUYnnBVAr1OMzkwDjLdUH9X3meu2SkiezkF3zLabSEkqZLlgCa0T8PjNEXR5f6YyY2aWZQ03HpKJ6mOLncCrWTnCjUUmWZvc3r5jpAX269/ivRspMMs2ccuHwu/v33nY/3pMcHt7a5ZQAAAyoSURBVGRH6NBAFkEqthTGVWwtvHAUw8lZM677E2/OS5mTGCF/m6Zihe2gPqNLkJNRNJmWzaQXx5oHRqWzqSffHq5B8kpv3fvd48fffffX7x7/7vePtyb6b/oy0hX8v53NjebD6iFagMS0BkTPLBosAtXc30xTRDHsgVTNf8VxAUuJVY8/EinSdFMWY2qKr22RWCnLNuU+YapHSNamc+tNQ3mLc+YLFcCNtEkXcC8RruxvVKdlWdu09iqCJ4EMA6l/H2w6dSsfb7AYcRQOh3xXv8kgQA3t87eDGJhqvmhLzVHcgC+KXK9gqhytJ+Jozn6zvXPdrBZl0pU/wg/bThntZp4m0QXB/VyLhvR4kMnOzM979yHFgKwyHPZc8/7HktO0EmBcC7IDCVimQEKrE6JmzuiAzWtO2b42jF2543sTEWKrAdm9ExUhGI3GYDkV9ErNYiLI94jDvIsI23WzeQibw93GKG+jIM63SmCttVoLJ3S57jVnyJ2+XEK8eXzwGgp2Zbf/s5Mk4FQK7RdEZTgHSi3xRmzD+Qnl6poTldfONCJsDnfXhStaM1kEtK1oFMyN2ZW7QYw9sC/uOrXWW6bw3tjq9vPW4maFIJPVQJrAeKkvpmuQZYOjA7c56/PcjG2VwMEA9Iwq3Iek3NSOumywdGMosliue10780byJqBU4fpdgj5xTtCYlFJLUSha73GFRQ7qv4i5j3U9NrSztXa3TlP56jrTF85UaR6tSnl7ss5yJAWBYTy/hZD4fcDtohBDiskTTWc4NNo7D4bTzzzT0iSp3F3z230e33Wzx3Fwy6G1tVWfQZOgY8mKTSiaHkEkuYbWMmt78tL2UaWL2gbXSpncufRP80FwdkM+FjlVgjxsIPZxpihDWYJvr929GwLXe93MdjziW3m4Bv7P6cJdXVnPG0Nz7H8g9cl8WzOCb9274izShPcqh0fjqH11/lYWQ7pO5CGHpQdCSUcDWTM4mu50dQPhtbuNp5FrZ93jztu2ZR/aa+glqVivgFnRKlOySVFSbMjHb2yPY3glHsgrG+tvz0gTBpNkSW37zX42AXHrWGTB6VZa0aEgtGInzjQUmvHAbHitx6/4rsOGgsWK2UDf3GeocsEcehDRW6QpqU/lT+U6d8m1kUGlkwNPf/y2UEnDXu125NM3sLGVgifKkAPI+mcgMkut8sZmlsSJznQgEAhDhOcfXoPNdoEtN51QSFC5I2BUZQDpTtFmgPHuyj1ufEIM20dRyN64arTcVZfl6QeNpHcMN+41tMQETTyXWhM16SxL9svG5i5DsXW7PB0PBG46d2cPoMnwFFUSZ1pyPYhCQxHSn5ZSEV16QdNfaRBthDQ5nsvJh2+nxkBJFOGm473iK3A0syEfZWmsovCoyLVVRNaQz2MU232A2BEP3HS2zZ55FVCdoILgc/MKv6ALqp4t8QOR7vfkeuyCdWK6dR532jcLb46QmEAUNNlqD7VPRwkb7i1W5d0MAw9bLEkpY07QYxVtMQ/xy5olnZ6+6R0oPm5Cm11bO2Qp7lwzkhWBtxnRmGoTKiLNnWoJffQKD0XRYtW32M4V3mYcjlWdbrt83uesuSGcYQ/k2QlRrAgptZXtGyp6905ri+jdMZ81yHSdaxuj5UQIbObuXYhdVP5c6+b7C6UJdmBL3UulFIJNt+We8sqbVMOxfHm3+BbjmHr4tN/e/MMoiNBsTZNPy2TszCbcP4tSYiVlzFS0dhknifbamsNvj8Sfvt8bgatryEt7ii6Ka8gtb1SEGlQY9nnwSRmC2w1o9fJoVLx9TGPU29kmhutpjlE2/4Dkj9PJSnWzMeRcyqCUguA+UGuZdBbTwmkcZ+o+B7j7+Mp7v0nZW7Wj6FahkedoBtFLxLcykjo3IaUqHJ0/1eS6Yr4Pdm3kR2mcqwnYyCBpdOT2RIzOgjPaegQ1372UoHuLWjtD4XQPRfDQ93hbfCluHr0Uais0FjuXm0ko1YqqMMRjKRsPImHT5wVto/gCTR5cg81Suj6dJA+qufVWloxV1JJUE/G+wEtCq2xo7SyOB+t+s4P13q/t8st+E5n5NgOI9VjridmSIOhp9IqbbquJJMOIhwmtUFcw1xUCHRHhojGjpzkhf3GhCXXp1kBKU2IJMupYUz7PUiTeQ9NG5nv27/mu+F4C8pERtrABVWMrvo7lJ7ZEURRsKVg6OhhkQbLD7YJcqBtK0usi35wfI4JJprJ/Es+tn0ZjOPFcLRkAriRMUGSpNiNubJ7nAdq2fXQCQMQff0+x8ksdj4kuHLL7u0GK6M9qxSBOnIGuoLdQxRoPGTtOcuDgZmUtsdF9ybpYlnW5GBf8AR+w4sFJQcu1TyHlo0VO4Xk9Gi1B9TokMTGjVJ0tEbKSntthnefl6XyfAwD4lY7T7wFo/kiTwcn8ttwUxaLEt2rS4zRxZluQ+JKIUWQ6n91trGtQPxWqJxsmnVQLUPIU2uetcp5hOWwgSaWWUCEocQvcLoQ+Q05EGYxRwmAGjojf2Vn53kfDLK2E7ahD7W94SUo8lhM7+XStJangnQTb/aENsOXVEkkxsVi/dXx6ut1oo2N+2o3t09NjPR0LEhQnnqlD1JeU0BkZ8CQLZ3nvyeapSFLB4iya0HLMvrfzuExonhAqL1+4wlA0+Nw6FpuRhD7U4QJv6BM4eiVdJJ8rJM25aJrhuBgiDqQaRK/dYwQ6KmZrpmaGT9TzoTJbTbkw5CiSaNpR/+WHn524ZB0B4HCHu16SBE9XMJLR0sSZIAyL8wTGDGxCTRQlSdLPBqZPIzKxPGSjygCSeYgVuFIC7pJ9vgVqWhMxHHxwrpGF39zpWX0rt+MHH7wSQCaOzk9z9hSaYtLbcnUnJg4kXh1IW67ntpKaSoNPUA2bhBp/UJgIQild4W2SaiuhNvYjyEopMaXqUUPtu7ATua1zFO4ywu6cCc4d+KHQIAk2oYWcTn/AYHEqpvfkXiU/U1F5FbJqqSZJ6aBqa1V4NLCIvB94CvS+qtEyzJdhwVfPiWIK3I74SIdgv5snKRd1BKuG0DsJr9rhP4CWrN6S2dL09EgGJ2LHCa23E8voQ0g5jWGNn4iBBg4k1JzPC/xQLAv8fAWcxZyZSdGQzpfEmpGOYRua8zTNUOZZOtbzAv2Is3SW4o7RMmjT3NHEXBRRbq3L610smO3XihXAVxakmbMUamiVbeBaoba7v8OrLbPCorK8lGqJZdGo5kKnL1wUzlR61giluep1bya+Fz29eEKktm5HwvASFMG1tgOFjcqLMtcvpdQ5iT/ja6g3lJFsw3zGJsxleMmwum+E0S+/2HlYyK1DAUPhLNFELnOkKTmn/8ec3bQ8kqiJzeGJRMLozCuSy+wmNAj2Sqw8T0ZVaWHC2smAkAYVcfaMF9DZUjjBsljlWUEOnGc5giJdWDOMIs0YuB9zMudSyFRaC1rIdCntLugdJeb1+rqsnRwYWPKTRxl0Fh2Oif1araZHSaUSncl6kyIKXLnCUSvGURTuVeqzDgjQnteMc954SsI7adaRM09gQYt5zJaE293+D4xgSJwV+4eNgKYVes+KioKh4/yYWDYrEhD4leJ+Dzjrae/20yywjCZ3tp1+65C2yCvGOa4r4t+PVtChdCNCo90oBK6teda7CmgeRcfK/eN6u6Bp6A2o6gmiarUQlzWIp0enej5GkxQ6m67ZWFuz8i5faGUFLWaeT/fTHfC3Zz6wwwH5+gO7s1cMsgQ604/l0n29dbxbN0/5aWyfn3aPW3pfDAIuAJbEmp0E6ij40BiK50eccvVOWjEVbvWuecKBLAfqXV1h0FmIFNooAZAmmWchgoIRDIspRj3+4AFUbrNrd8Mogl7VaP5p6CmS6tM1B8IG9XV4dW22XT/cMc+MRIdJwX9ANMsGk16s2DxqN1at0hOuvXvX7vR8r4NpviclABzI1qr9oYZdiyBBhRd7vWbXOCyaZHSb9aNZjznbv4q6Uia21d6S7/oO1k9BS07UhFqOADZTTiG7x0zdob4E1OCdc5b7ckRGpmjJfzoe6izZOpEfdYbfjbRnKszTiCmmtbsR0y+Ew+ZRT5Y7BV/ocKxa2ZXbd3c1YmJDWy0rP5cdXJCZpvIdezyQ6D3s2T3WYbiXsbkd1hdAT5eWO3G/3VSzpb/N+cz8ytISlB8dv3X0kiPiHwXwETaHw25tTaFWH/83AnWJltAwpC/+dGWpE7mMrWOdyRyJOH+pQ7eX/e7O8h6Kifyy7zW20RYjOsva/fMdPHsDjZ8BvhK6wOYL3b76kl+OlhKjnCzx/8XZ6ZeJf4qw+d/j6KpfgpZDjh+VLf6stPRep5G9N/0/RYHI/opHTu8AAAAASUVORK5CYII=;" vertex="1" parent="1">
          <mxGeometry x="1070" y="222" width="82" height="84.65" as="geometry" />
        </mxCell>
        <mxCell id="k1TD3On16lQonihZNoVF-5" value="" style="shape=image;verticalLabelPosition=bottom;labelBackgroundColor=default;verticalAlign=top;aspect=fixed;imageAspect=0;image=data:image/png,iVBORw0KGgoAAAANSUhEUgAAAMwAAADACAMAAAB/Pny7AAAA21BMVEX///+kGhFjZGbYKiBfYGKtHhTv7+9YWVuam5uhGRB6DQFxcnTQ0NH+/Pz09PTDw8OgoKHSoJ7UnZqtra6nJBzQJx2jFQve3t6gBgeNjY7IJRugAAC9IRjUAADl5eW1HxW5ubqJEQfXIxeAgYL99PPXHA34397rop/77OvwubbhZF/sqabZNi5xCQD1z83ibWfzxMHnjYreV1HlgHzbRD3CeHXqmpXeUkjkeHPplIr1y8LniH6VFQ3FFgaxSEPozMqtOjS5V1K+a2bBLibKjIrguLWoLSm3Xl1ISU28jzPgAAARl0lEQVR4nO1caXfayBJlEQiCFhwFGFYrEshgCJjFmDxnvI2d5P//otctkNRLlSTPRNg+h/owZwJqdd+u7VZ141zuJCc5yUlOcpKTnOQkJznJ24uhv/UK/oDoQ28+uVjudsvt9MobfmRI+niyXWycvi+j2WpJ8Lz1mv6dEKVMVzNn5BQDGY1mm+0HVA9BcrUd9UdFXpxRv3g78cYfCY/uXS0vZ/0iJE6/uPo++TDmpnsXxFF883IcB4AzKm4WF95bLzOF6N5keRlgcG5Ws9EoAuEweC6X7109xFGIeUXLv5lP1qs9HKc/W3y/LYZ4SDRYbK/Gb71iVLzJ4qbIG9YkN/amNzQyO9Orsbdk/Yg8ebObvEvtDKnPiy7irIhrDL3Jbje51/WcVxS/dzaX2/lbL10Ub0uRAN7+ne68PvSTi34hBzgyaHY5fUfWZsyXRQhIcdTv75h1jm/EvBPg2Vx47yP1eNtFEUophMXMvs9Zl/BWfSmNBs9u1m/vPcPJguw/uMDN7f+kx+fbVRGD09/s5m+nHkq+ZiRMgWtbTce6PtSp8KPmtxsQjY/n8mosPn8UITFqeQMjoQu7XO/Wy+3FdDIJmDKJAsOx53lX3zE0xWK/v9jOj87cxnMSvkYYlKLv+8RByAOz2c3URzO5+L5eXK42m80MH0a8b7ObHpEa0IJrNxox5GQv4f/xOnL6l5SHjfsjX7jvG43z6nmnwQ8YjTbL+fgoeAi3v+DCF/H/zepyt17fLm/XO7L1sxFvfY6zJCubymGi0euV8p++/cj3OvwXNLhN55knn+F8ur5hoFCnXU4nc88b++J586vpcjfj4DjOVS63EMA0Or3zEpGvn759+vqj1BPgkLp0PcmSG+jD+XI1YynJqLgg3JcPQCSIjefLDRuB+4vxvMFpq7FH4oPx5euPnmBtTnG22maVS0kgXm9GXJZwbqZIWTK82nEPXuyYgUQppVAOYIh+APWMFtmk0vFW4pHO6gqfyluzj86iCNYJlcKB8dVTPefVUxzdTLLAspPol1O8iNu2+Q0UuTscEgHMp2/fPp2Lc2RgaFM5qTibq7gRw4VMXBq9kihfWShfq6KlzT5nAOZCXpkzi9WMB2qm0TtHwHz79qPUEB/vfMkCzNnf8sKcVUzsHC4xftCAfabakR/tNbMB81dPnmu0mSAtPX0OGFkEh/EcH8y3r6Ln+0rMV7MCUy3JWzfqr6ZzEY+uj69uHbguCCWMziRpfoWUQtyrWs1nBSafz5c60v4RMrMlBGA8HvpCSQChO1BhQEgZF0QO3vMDVAqBkqeSIZhq/rwnzUx0cLNaUMK/3S4JObshNY4IgzLMxmxzuVhxSyYppye/0LdCopWMwVA4pR6gHiL98D/R9lNlkH8SFASqz+DWgsZkJBRK/gAlYzB5Oo9I2gHxlVGkdHqx3k6Ckxl9MospgXwk1L4CJNmDoXBK5yJp54CQsozA2N3ulcFUJvNNTIijQuwr0spRwFBjy5fOMTjObEtqZR+FUM+PxTJA0AqJCHlWLccBsweEWdtsMQHLeP0izsaC+JUXwJwdAww1BygYUN1sFtu5zHRijIwWBYJO9tK9u//zWHJnXWAqam0AMdi3xKfCG4wVioUkUPDtze7DfRbVmfcAoyEKguD4gPhq5xZzmA6oE6qW7mNGfQDvrovBkRoSexn1Z7dRj3IOY6EEDMZS7T5lYWJ7GZ5hyvFTKeQ8hOtcTg8twEsIDJsfRYWf/73LsqExvO4iBkEmh+E4o/5mQjMNcJpR7JTQ1+Upqx05i6y6m8P58tIB4+dhK5FYPeo76/lUOvLYs2JEzwH37PeXmXiNt/YPKylzwuEg6ukXxY5sRCUlJJyOnZkYFP8IlsjmO3Ki5qwtkbj5VBJVL78fjWwaGpyJxDhuEg+lrAW3L3FsLws685nPeA1fPfjuojy0gaR6KiV5WO9IDQ1fPciyoHVR6WABRLav/Y5l1tCQjKcRkyYAi4nRShViefTtmbHmklys01oqJldw+GMME4oa+6iZGRiYJTc6JSxh+Bvuj6DVPhwBqyTVwzrPZwrmYDzixLHWRkcQwWK57yryCyNzzLY4o+qRZvfpImJDcUIYN9CbYbNy9j2APJTnO3jIRZBAfIFo+cg9ANrRABJjB0uGMBTQVUT3O0oPALW2tOqBfA+I3EdqaPg1mayeHhqAGYGDPLQPx2poYDTM733hQDBXAQNis5lJtXnWbQILg2lYLDMA8Pv2BfZmuteZ3Ev1npAWAGhtDaRMANIU7TJhlc3j54waGuPrB0g5CEf0D5V5NH4MlJWCVmnV0j8XmV3SGN9ffwF1s8/zkLVF1lMFDczvYmJQyAZdrjO7gTZf/4P6Qh5iyQfnoQLVBGg9EAYJh15bywKKt6NXq+LaEFDEpS5BpCMrpYMwTz5IOJtsegCHQyS4wR2pR4IDCm3Iog0zph7I6lIDa+mosaU6icKLIDlIHOFSA6WD2HqQflMEBa22q3In8Ug9gA5ubVXolD2Agms1L13QaJSO1gOI4S1V6bJipFFMn5K7dXrVDHsAMhw8tgEmE9cmhx7O+lKD3A2Ki215Ni7FtMlLklXSi6i+1rPsAQAtoZh2ILU2mmIajQ6uQ8C+mPZt1pcaZCLWwViv/6l/QwZjLQAz4I43sy7OoNgbpx5cqvJlnAZtZzAbc5QegEz7O+fxRRmARNKx3PE9RtnsX9KA6BaeRAQoVci+5PHH6QFUwdjWQY9bBSj5jtiQbYDlXDN/nIZGHqT9aAnMIpGGYcdPze7j8S41IMEgBo4PBdoA6OFmRqfn4zvs3DwvVTEx1lYFnkYPSbvd54x+qzF8+AvuAfgRtiiuEIQDQEGPN7vdvzIxsYPcP33B4ACrlEllNS81QTENNrvdh2y6TJG8PFWbMBywKhOqBDmrIEppdvM/P2f/Q+7xy/VDHu04gTx0D0hOSyhb63a/PH7O5DKTJMP7518/EWsjTF52b9rRkPoZaMRrdpsPT2dH/EHt+OXXT1Q9VeDusyjyyUVkX3fXx1FKJN7L9V0XDQbIsXmIBLOvJrGv5/s3+Jnz+P7zU4zzgPcD966C0FESv35en92/0U+C9fHL00MTTT1YDwC7v9h8uH55y9+eEzjPj6i1QWUXkiCJff16E/vi4QzvX67x245cQYz3+7vd65f38ddo9OGYaAfjbaXD3Qu8EiVjn+7fBZK9kNSDxrb8vgmAYCVQHp6BG9BvKrp3dv0FZdVoPdDtPp69k7/QwIt+/6uLqgeSZvevh5d3phRGxp8fMVotIyGsJUOC/yeExOqHFOppdqvEvt56scmie9d3X7pQvyBC0v1yd0wq+V+EBINfWJlAbynkeVZcbmmtMhsE9AH95OjLRmX48vwL9B7Cih+fOa/XKjWl4JpG+IFhuwWlVmkdf9Wo6B4NBmKw7jbvnnmC33JVhYodfKpb/geq+57Q5CjR4eDQsv5ZYMXlulKgotSCtbcK+0/UuiG/8w1FH9/T2NZtEqGE55dM8FvufumFgnVYu6Xu/628L9VQIUTn6e5nPv/l4fEJ6lBotQBM5eDy9QBMTTvuUtPI0Lt/eTl7uboH//TKBwNDf7Yt/4mjQD4cmDiJAfP+fCZJZDBmAKb9jvJmOpHBlGs+GkW132NpECsymNyAQlHCUP2BBACTG9j1dl37cHqBwRB69vG0QgUG80HlBOa9ynHA6NIfWDcQt9TL5XJ6h9UN8nT0bhiMjr1P94e/MtAZWr1SYaq/smaRDyqWyDDKLbteaROpW+YgEZE+oK8hT1fq9qEuhkMzmQkIzezw5MkiLFaNFHu1+v79Rstu1wq0/CPlLYc4+Jx+VXPrZiybIhviho/Xam27ZcBJ06U5s2Yb4nA7Gl4gkw1SgrH9ak8ptOk/TH/FMpXVyOeFYCl+0q65FjqDYTOvOTxe0QAwRntPZwom1+TQKvzw2MlYCSrXwm+TlILMgpk56f7x3+xXWIcNWnPZpYQraluuRDSDfWszax20pbkonjSURzsQ14JaGdRU/hWHKaIdFYQMkV9oWPJaAvTiLkFlc6sNDlcKlVZiMDBDADVXfIs/hW7J2xyiqUmeM6jgj0tggOKsJa0inKwgulYMGNmQaJVRrsStTSoRB2015vFkMOUKPl5RzATdmOhgpWBH7aHwfQq/8QKadFhwMIYdNyyxhkPA+NHaCGJd8BkxRdet1Vg8XMUrQH89mAFnZMLGMQ239GDoK2pum+RRnfF9gq5ta4PBoEXiNxs4o+3SLZV7jRK+LiUY3ea2rlCr8TE6qe8hgSHb37Zsk2Y51huVWsUMVq1rVhQ+lVpY87ZYt1NIZrVs27YqruSNGJiyq0bD25apaaZdd5mpErKNBMa1tGDRJMqG73ZNzl5blht+1T4o32izwWSf9XM+DWoL2sHAtCIs7WAVOhl++Fh9nc+QaK5F8S9SjOKK/MnQwi8D1WjMe1R7EA0wWkK8xsCESY/TgTGwFNpgVwuvimbEZFg+a0ZYZM/TQzSBaiLFkEDIT1uuc6aGgNHDxah1fufMNvmQPQtJAYaHXg5XWwAdL1Kcv3Qt8i95C8sWOw2mmQhMWxyvadrgFQyA0DMb/krYp1ACu1L9xTGKAVI1lw0TzaxQSMcscTBqhfsm8mcFCe96cOBCrdAI36O4kJ9qjKElBwBiVLb26r6NyQRDfs2DIMdgiiGT7x/xzTCyMtWEnjXqyWCMChsPaY7Qyq8pNRkwvGKirVSsQQuRg9fQ9qqVlA3MZDPTTS5O7MmTlcyWATCCl5vCW0E56IIUGyEhVZHKoxxxe5TOlGX+r6hq22qlszimBOAtXbek90rzBP9DIoAeLqOGZAOGROKsGaydSIappGrhhmAUl/9Cj+X+vBAwURxvY3Eo1WGTCZZ2RD1uCmtDQ7uRkgH/YTD0ZgA8B5fQswRjGYM/BIa2M+BalYSCJDR/AIxC1/LHwJAoYEMdEZ8kJcQBFEyKAHCQmksmicwMO5/UzdQHtC2b1g2qVMenrmckMEwFa8WKX/sYYTRTwJzJFRSJp836QLOttqsKeJLqZpzbRXlGaRlxso8yoVVid0cGKfIMi8cotzTL5WtnmFykABOZuJrmlD6seJUCaGd6CgYgiUGK9ApTpAv0MT2Y0AuSXrGXVjSjBWUENrm/5lKDbmgWwx9jQwAOhmV9Ke4cMKwZbKKYKVgzhkf7Hbxaia0McDBsRe5CQwWpMJRV3r9B1KuI65tpVl06S8lFfdyCGrutMWCM+OURKbPBpRztvNoWH+ewoGAGbZWIIjNV+z+DYS1DAU7utLpbqzMvZ7pmapt3Gx4LBiY44ZAa8kbUbfq3ZsYG04LUhB9YBVVRVMbaW7XoabUdsXbiwgIXRsAMouaMyZz/6exWxCaaODBMzqZEr64FM5AcYLr7gKm40V7Vme1XlbY5KBs0W5htMZcjYOzIrAmtbJXpbS8y3oqOWoBFpgVDO0SREHpRMVsDv0FrudH67PBx7oCHaq1ikTxekGhJMhh/trZtm2Q8S2tUW15kWjC5Ft/VVxXXF3Z9CtMhEMxJUX1/FqGgYITuKh3Kj1cT+rPxYHKacPbDFssHYTZLt7FDtlRgBgmjlUI8m0kCkzOTJuC4Hz26/vdgcgl7kXhjOAmMYaLncvtRfOAvp9IN2moy+RAeP9frweT0Fj6B8ltqPBq2eMwbPZ3MmvVWBfKx/ehELFHvDm/1DSrw+TFZHNDK1jXg6Js+XXDDPBScuQOnzVS18PB6csM24MaKij9rmCQ+Sm9XufTPvpIEbvFxtdA2W5VAD4EfB31GleEXOs0rIhwSRpPbGeELlfgIXtYq3PpoErHQXrDeMt3f7PGdqvrHblpB3S89/GFDcEODI80GHc4Gf+W3m/LCiW762SDxAgQ1NjWQgqvF3zeiDCZ6unLoGNs0b3C8zaUfyAWAYbiFcLhSe81VINM20+iQbJlmkqystdJt00AzyZtN9rc+hmYLezwwsW6/P5zM9m/ONk5ykpOc5CQnOclJTnKS/yT/B5DXAs/KXIM0AAAAAElFTkSuQmCC;" vertex="1" parent="1">
          <mxGeometry x="579" y="98" width="92.44" height="87" as="geometry" />
        </mxCell>
        <mxCell id="k1TD3On16lQonihZNoVF-6" style="edgeStyle=entityRelationEdgeStyle;rounded=0;orthogonalLoop=1;jettySize=auto;html=1;entryX=0.022;entryY=0.3;entryDx=0;entryDy=0;entryPerimeter=0;fillColor=#60a917;strokeColor=#2D7600;strokeWidth=3;flowAnimation=1;" edge="1" parent="1" source="xCOBlcEBNlZvq0qhSWPW-1" target="k1TD3On16lQonihZNoVF-1">
          <mxGeometry relative="1" as="geometry">
            <mxPoint x="716" y="519" as="sourcePoint" />
            <mxPoint x="1051.2780000000002" y="364.9739999999997" as="targetPoint" />
          </mxGeometry>
        </mxCell>
        <mxCell id="k1TD3On16lQonihZNoVF-10" value="" style="shape=image;verticalLabelPosition=bottom;labelBackgroundColor=default;verticalAlign=top;aspect=fixed;imageAspect=0;image=https://images.ctfassets.net/gt6dp23g0g38/5DqlQtFKecFlkqQ8YGDT2p/aa945b648f44dd872e9a1b89f7d203ef/springboot.png;" vertex="1" parent="1">
          <mxGeometry x="551" y="224" width="30.06" height="27" as="geometry" />
        </mxCell>
        <mxCell id="k1TD3On16lQonihZNoVF-12" value="&lt;font style=&quot;font-size: 18px;&quot;&gt;Spring Boot App&lt;/font&gt;" style="rounded=0;whiteSpace=wrap;html=1;sketch=0;fillColor=none;dashed=1;strokeWidth=2;" vertex="1" parent="1">
          <mxGeometry x="511" y="191" width="261" height="256" as="geometry" />
        </mxCell>
        <mxCell id="k1TD3On16lQonihZNoVF-11" value="" style="shape=image;verticalLabelPosition=bottom;labelBackgroundColor=default;verticalAlign=top;aspect=fixed;imageAspect=0;image=https://images.ctfassets.net/gt6dp23g0g38/5DqlQtFKecFlkqQ8YGDT2p/aa945b648f44dd872e9a1b89f7d203ef/springboot.png;" vertex="1" parent="1">
          <mxGeometry x="561" y="400" width="33.4" height="30" as="geometry" />
        </mxCell>
        <mxCell id="k1TD3On16lQonihZNoVF-14" style="edgeStyle=entityRelationEdgeStyle;rounded=0;orthogonalLoop=1;jettySize=auto;html=1;fillColor=#60a917;strokeColor=#2D7600;strokeWidth=3;flowAnimation=1;exitX=-0.011;exitY=0.796;exitDx=0;exitDy=0;exitPerimeter=0;entryX=0.975;entryY=0.693;entryDx=0;entryDy=0;entryPerimeter=0;" edge="1" parent="1" source="k1TD3On16lQonihZNoVF-1" target="xCOBlcEBNlZvq0qhSWPW-1">
          <mxGeometry relative="1" as="geometry">
            <mxPoint x="731" y="267" as="sourcePoint" />
            <mxPoint x="1053" y="344" as="targetPoint" />
            <Array as="points">
              <mxPoint x="869" y="436" />
              <mxPoint x="747" y="306" />
            </Array>
          </mxGeometry>
        </mxCell>
        <mxCell id="k1TD3On16lQonihZNoVF-15" value="" style="endArrow=classic;html=1;rounded=0;fontSize=15;endSize=6;strokeWidth=3;strokeColor=#C73500;fillColor=#fa6800;edgeStyle=entityRelationEdgeStyle;flowAnimation=1;exitX=0.026;exitY=0.204;exitDx=0;exitDy=0;exitPerimeter=0;entryX=1;entryY=0.12;entryDx=0;entryDy=0;entryPerimeter=0;" edge="1" parent="1" source="xCOBlcEBNlZvq0qhSWPW-1" target="uzK1g9B03LPP1aDm-Dno-1">
          <mxGeometry width="50" height="50" relative="1" as="geometry">
            <mxPoint x="173" y="361" as="sourcePoint" />
            <mxPoint x="554" y="261" as="targetPoint" />
            <Array as="points">
              <mxPoint x="544" y="207" />
              <mxPoint x="537" y="290" />
              <mxPoint x="524" y="361" />
            </Array>
          </mxGeometry>
        </mxCell>
        <mxCell id="k1TD3On16lQonihZNoVF-17" value="" style="endArrow=classic;html=1;rounded=0;fontSize=15;endSize=6;strokeWidth=3;strokeColor=#C73500;fillColor=#fa6800;edgeStyle=entityRelationEdgeStyle;flowAnimation=1;exitX=0;exitY=0.567;exitDx=0;exitDy=0;exitPerimeter=0;entryX=1;entryY=0.858;entryDx=0;entryDy=0;entryPerimeter=0;" edge="1" parent="1" source="k1TD3On16lQonihZNoVF-11" target="uzK1g9B03LPP1aDm-Dno-1">
          <mxGeometry width="50" height="50" relative="1" as="geometry">
            <mxPoint x="173" y="361" as="sourcePoint" />
            <mxPoint x="557" y="409" as="targetPoint" />
            <Array as="points">
              <mxPoint x="173" y="361" />
              <mxPoint x="561" y="444" />
            </Array>
          </mxGeometry>
        </mxCell>
        <mxCell id="k1TD3On16lQonihZNoVF-18" value="/api/auth" style="edgeLabel;html=1;align=center;verticalAlign=middle;resizable=0;points=[];fontSize=15;" vertex="1" connectable="0" parent="k1TD3On16lQonihZNoVF-17">
          <mxGeometry x="0.2804" y="-3" relative="1" as="geometry">
            <mxPoint x="-29" y="28" as="offset" />
          </mxGeometry>
        </mxCell>
        <mxCell id="k1TD3On16lQonihZNoVF-19" value="&lt;div style=&quot;&quot;&gt;&lt;pre style=&quot;font-family: &amp;quot;JetBrains Mono&amp;quot;, monospace; font-size: 9.8pt;&quot;&gt;&lt;font style=&quot;background-color: rgb(255, 255, 255);&quot; color=&quot;#330000&quot;&gt;https://api.fbi.gov/wanted/v1&lt;/font&gt;&lt;/pre&gt;&lt;/div&gt;" style="edgeLabel;html=1;align=center;verticalAlign=middle;resizable=0;points=[];fontSize=15;" vertex="1" connectable="0" parent="1">
          <mxGeometry x="953.9955109056409" y="250.0005495221621" as="geometry">
            <mxPoint x="-33" y="3" as="offset" />
          </mxGeometry>
        </mxCell>
      </root>
    </mxGraphModel>
  </diagram>
  <diagram id="FYrnJrQARu1fBFtOPtaL" name="class-diagram">
    <mxGraphModel dx="1497" dy="943" grid="0" gridSize="10" guides="0" tooltips="1" connect="0" arrows="0" fold="1" page="0" pageScale="1" pageWidth="1169" pageHeight="827" math="0" shadow="0">
      <root>
        <mxCell id="0" />
        <mxCell id="1" parent="0" />
        <mxCell id="nPPL16FtD3WXAmP0PZX--12" style="edgeStyle=orthogonalEdgeStyle;rounded=0;orthogonalLoop=1;jettySize=auto;html=1;entryX=0.5;entryY=0;entryDx=0;entryDy=0;endArrow=ERmany;endFill=0;startArrow=ERmandOne;startFill=0;" parent="1" source="WRttjeE3I7V11c35sN3d-1" target="WRttjeE3I7V11c35sN3d-10" edge="1">
          <mxGeometry relative="1" as="geometry" />
        </mxCell>
        <mxCell id="WRttjeE3I7V11c35sN3d-1" value="Customer" style="swimlane;fontStyle=0;childLayout=stackLayout;horizontal=1;startSize=26;fillColor=#d5e8d4;horizontalStack=0;resizeParent=1;resizeParentMax=0;resizeLast=0;collapsible=1;marginBottom=0;whiteSpace=wrap;html=1;strokeColor=#82b366;" parent="1" vertex="1">
          <mxGeometry x="70" y="-80" width="140" height="130" as="geometry" />
        </mxCell>
        <mxCell id="WRttjeE3I7V11c35sN3d-2" value="id" style="text;strokeColor=none;fillColor=none;align=left;verticalAlign=top;spacingLeft=4;spacingRight=4;overflow=hidden;rotatable=0;points=[[0,0.5],[1,0.5]];portConstraint=eastwest;whiteSpace=wrap;html=1;" parent="WRttjeE3I7V11c35sN3d-1" vertex="1">
          <mxGeometry y="26" width="140" height="26" as="geometry" />
        </mxCell>
        <mxCell id="WRttjeE3I7V11c35sN3d-3" value="firstname" style="text;strokeColor=none;fillColor=none;align=left;verticalAlign=top;spacingLeft=4;spacingRight=4;overflow=hidden;rotatable=0;points=[[0,0.5],[1,0.5]];portConstraint=eastwest;whiteSpace=wrap;html=1;" parent="WRttjeE3I7V11c35sN3d-1" vertex="1">
          <mxGeometry y="52" width="140" height="26" as="geometry" />
        </mxCell>
        <mxCell id="WRttjeE3I7V11c35sN3d-4" value="lastname" style="text;strokeColor=none;fillColor=none;align=left;verticalAlign=top;spacingLeft=4;spacingRight=4;overflow=hidden;rotatable=0;points=[[0,0.5],[1,0.5]];portConstraint=eastwest;whiteSpace=wrap;html=1;" parent="WRttjeE3I7V11c35sN3d-1" vertex="1">
          <mxGeometry y="78" width="140" height="26" as="geometry" />
        </mxCell>
        <mxCell id="WRttjeE3I7V11c35sN3d-5" value="email" style="text;strokeColor=none;fillColor=none;align=left;verticalAlign=top;spacingLeft=4;spacingRight=4;overflow=hidden;rotatable=0;points=[[0,0.5],[1,0.5]];portConstraint=eastwest;whiteSpace=wrap;html=1;" parent="WRttjeE3I7V11c35sN3d-1" vertex="1">
          <mxGeometry y="104" width="140" height="26" as="geometry" />
        </mxCell>
        <mxCell id="nPPL16FtD3WXAmP0PZX--13" style="edgeStyle=orthogonalEdgeStyle;rounded=0;orthogonalLoop=1;jettySize=auto;html=1;entryX=0;entryY=0.5;entryDx=0;entryDy=0;endArrow=ERmany;endFill=0;startArrow=ERmandOne;startFill=0;" parent="1" source="WRttjeE3I7V11c35sN3d-10" target="nPPL16FtD3WXAmP0PZX--2" edge="1">
          <mxGeometry relative="1" as="geometry" />
        </mxCell>
        <mxCell id="WRttjeE3I7V11c35sN3d-10" value="Order" style="swimlane;fontStyle=0;childLayout=stackLayout;horizontal=1;startSize=26;fillColor=#dae8fc;horizontalStack=0;resizeParent=1;resizeParentMax=0;resizeLast=0;collapsible=1;marginBottom=0;whiteSpace=wrap;html=1;strokeColor=#6c8ebf;" parent="1" vertex="1">
          <mxGeometry x="70" y="200" width="140" height="104" as="geometry" />
        </mxCell>
        <mxCell id="WRttjeE3I7V11c35sN3d-11" value="id" style="text;strokeColor=none;fillColor=none;align=left;verticalAlign=top;spacingLeft=4;spacingRight=4;overflow=hidden;rotatable=0;points=[[0,0.5],[1,0.5]];portConstraint=eastwest;whiteSpace=wrap;html=1;" parent="WRttjeE3I7V11c35sN3d-10" vertex="1">
          <mxGeometry y="26" width="140" height="26" as="geometry" />
        </mxCell>
        <mxCell id="WRttjeE3I7V11c35sN3d-12" value="orderDate" style="text;strokeColor=none;fillColor=none;align=left;verticalAlign=top;spacingLeft=4;spacingRight=4;overflow=hidden;rotatable=0;points=[[0,0.5],[1,0.5]];portConstraint=eastwest;whiteSpace=wrap;html=1;" parent="WRttjeE3I7V11c35sN3d-10" vertex="1">
          <mxGeometry y="52" width="140" height="26" as="geometry" />
        </mxCell>
        <mxCell id="WRttjeE3I7V11c35sN3d-13" value="reference" style="text;strokeColor=none;fillColor=none;align=left;verticalAlign=top;spacingLeft=4;spacingRight=4;overflow=hidden;rotatable=0;points=[[0,0.5],[1,0.5]];portConstraint=eastwest;whiteSpace=wrap;html=1;" parent="WRttjeE3I7V11c35sN3d-10" vertex="1">
          <mxGeometry y="78" width="140" height="26" as="geometry" />
        </mxCell>
        <mxCell id="WRttjeE3I7V11c35sN3d-14" value="Product" style="swimlane;fontStyle=0;childLayout=stackLayout;horizontal=1;startSize=26;fillColor=#fff2cc;horizontalStack=0;resizeParent=1;resizeParentMax=0;resizeLast=0;collapsible=1;marginBottom=0;whiteSpace=wrap;html=1;strokeColor=#d6b656;" parent="1" vertex="1">
          <mxGeometry x="453" y="174" width="140" height="156" as="geometry" />
        </mxCell>
        <mxCell id="WRttjeE3I7V11c35sN3d-15" value="id" style="text;strokeColor=none;fillColor=none;align=left;verticalAlign=top;spacingLeft=4;spacingRight=4;overflow=hidden;rotatable=0;points=[[0,0.5],[1,0.5]];portConstraint=eastwest;whiteSpace=wrap;html=1;" parent="WRttjeE3I7V11c35sN3d-14" vertex="1">
          <mxGeometry y="26" width="140" height="26" as="geometry" />
        </mxCell>
        <mxCell id="WRttjeE3I7V11c35sN3d-16" value="name" style="text;strokeColor=none;fillColor=none;align=left;verticalAlign=top;spacingLeft=4;spacingRight=4;overflow=hidden;rotatable=0;points=[[0,0.5],[1,0.5]];portConstraint=eastwest;whiteSpace=wrap;html=1;" parent="WRttjeE3I7V11c35sN3d-14" vertex="1">
          <mxGeometry y="52" width="140" height="26" as="geometry" />
        </mxCell>
        <mxCell id="WRttjeE3I7V11c35sN3d-17" value="description" style="text;strokeColor=none;fillColor=none;align=left;verticalAlign=top;spacingLeft=4;spacingRight=4;overflow=hidden;rotatable=0;points=[[0,0.5],[1,0.5]];portConstraint=eastwest;whiteSpace=wrap;html=1;" parent="WRttjeE3I7V11c35sN3d-14" vertex="1">
          <mxGeometry y="78" width="140" height="26" as="geometry" />
        </mxCell>
        <mxCell id="WRttjeE3I7V11c35sN3d-18" value="availableQuantity" style="text;strokeColor=none;fillColor=none;align=left;verticalAlign=top;spacingLeft=4;spacingRight=4;overflow=hidden;rotatable=0;points=[[0,0.5],[1,0.5]];portConstraint=eastwest;whiteSpace=wrap;html=1;" parent="WRttjeE3I7V11c35sN3d-14" vertex="1">
          <mxGeometry y="104" width="140" height="26" as="geometry" />
        </mxCell>
        <mxCell id="WRttjeE3I7V11c35sN3d-24" value="price" style="text;strokeColor=none;fillColor=none;align=left;verticalAlign=top;spacingLeft=4;spacingRight=4;overflow=hidden;rotatable=0;points=[[0,0.5],[1,0.5]];portConstraint=eastwest;whiteSpace=wrap;html=1;" parent="WRttjeE3I7V11c35sN3d-14" vertex="1">
          <mxGeometry y="130" width="140" height="26" as="geometry" />
        </mxCell>
        <mxCell id="nPPL16FtD3WXAmP0PZX--27" style="edgeStyle=orthogonalEdgeStyle;rounded=0;orthogonalLoop=1;jettySize=auto;html=1;entryX=0.5;entryY=0;entryDx=0;entryDy=0;startArrow=ERmandOne;startFill=0;endArrow=ERmandOne;endFill=0;" parent="1" source="WRttjeE3I7V11c35sN3d-20" target="nPPL16FtD3WXAmP0PZX--6" edge="1">
          <mxGeometry relative="1" as="geometry" />
        </mxCell>
        <mxCell id="WRttjeE3I7V11c35sN3d-20" value="Payment" style="swimlane;fontStyle=0;childLayout=stackLayout;horizontal=1;startSize=26;fillColor=#ffe6cc;horizontalStack=0;resizeParent=1;resizeParentMax=0;resizeLast=0;collapsible=1;marginBottom=0;whiteSpace=wrap;html=1;strokeColor=#d79b00;" parent="1" vertex="1">
          <mxGeometry x="-180" y="20" width="140" height="130" as="geometry" />
        </mxCell>
        <mxCell id="WRttjeE3I7V11c35sN3d-21" value="id" style="text;strokeColor=none;fillColor=none;align=left;verticalAlign=top;spacingLeft=4;spacingRight=4;overflow=hidden;rotatable=0;points=[[0,0.5],[1,0.5]];portConstraint=eastwest;whiteSpace=wrap;html=1;" parent="WRttjeE3I7V11c35sN3d-20" vertex="1">
          <mxGeometry y="26" width="140" height="26" as="geometry" />
        </mxCell>
        <mxCell id="WRttjeE3I7V11c35sN3d-22" value="reference" style="text;strokeColor=none;fillColor=none;align=left;verticalAlign=top;spacingLeft=4;spacingRight=4;overflow=hidden;rotatable=0;points=[[0,0.5],[1,0.5]];portConstraint=eastwest;whiteSpace=wrap;html=1;" parent="WRttjeE3I7V11c35sN3d-20" vertex="1">
          <mxGeometry y="52" width="140" height="26" as="geometry" />
        </mxCell>
        <mxCell id="WRttjeE3I7V11c35sN3d-23" value="amount" style="text;strokeColor=none;fillColor=none;align=left;verticalAlign=top;spacingLeft=4;spacingRight=4;overflow=hidden;rotatable=0;points=[[0,0.5],[1,0.5]];portConstraint=eastwest;whiteSpace=wrap;html=1;" parent="WRttjeE3I7V11c35sN3d-20" vertex="1">
          <mxGeometry y="78" width="140" height="26" as="geometry" />
        </mxCell>
        <mxCell id="nPPL16FtD3WXAmP0PZX--5" value="status" style="text;strokeColor=none;fillColor=none;align=left;verticalAlign=top;spacingLeft=4;spacingRight=4;overflow=hidden;rotatable=0;points=[[0,0.5],[1,0.5]];portConstraint=eastwest;whiteSpace=wrap;html=1;" parent="WRttjeE3I7V11c35sN3d-20" vertex="1">
          <mxGeometry y="104" width="140" height="26" as="geometry" />
        </mxCell>
        <mxCell id="nPPL16FtD3WXAmP0PZX--1" value="OrderLine" style="swimlane;fontStyle=0;childLayout=stackLayout;horizontal=1;startSize=26;fillColor=#dae8fc;horizontalStack=0;resizeParent=1;resizeParentMax=0;resizeLast=0;collapsible=1;marginBottom=0;whiteSpace=wrap;html=1;strokeColor=#6c8ebf;" parent="1" vertex="1">
          <mxGeometry x="240" y="380" width="140" height="78" as="geometry" />
        </mxCell>
        <mxCell id="nPPL16FtD3WXAmP0PZX--2" value="id" style="text;strokeColor=none;fillColor=none;align=left;verticalAlign=top;spacingLeft=4;spacingRight=4;overflow=hidden;rotatable=0;points=[[0,0.5],[1,0.5]];portConstraint=eastwest;whiteSpace=wrap;html=1;" parent="nPPL16FtD3WXAmP0PZX--1" vertex="1">
          <mxGeometry y="26" width="140" height="26" as="geometry" />
        </mxCell>
        <mxCell id="nPPL16FtD3WXAmP0PZX--3" value="quantity" style="text;strokeColor=none;fillColor=none;align=left;verticalAlign=top;spacingLeft=4;spacingRight=4;overflow=hidden;rotatable=0;points=[[0,0.5],[1,0.5]];portConstraint=eastwest;whiteSpace=wrap;html=1;" parent="nPPL16FtD3WXAmP0PZX--1" vertex="1">
          <mxGeometry y="52" width="140" height="26" as="geometry" />
        </mxCell>
        <mxCell id="nPPL16FtD3WXAmP0PZX--6" value="Notification" style="swimlane;fontStyle=0;childLayout=stackLayout;horizontal=1;startSize=26;fillColor=#e1d5e7;horizontalStack=0;resizeParent=1;resizeParentMax=0;resizeLast=0;collapsible=1;marginBottom=0;whiteSpace=wrap;html=1;strokeColor=#9673a6;" parent="1" vertex="1">
          <mxGeometry x="-180" y="270" width="140" height="156" as="geometry" />
        </mxCell>
        <mxCell id="nPPL16FtD3WXAmP0PZX--7" value="id" style="text;strokeColor=none;fillColor=none;align=left;verticalAlign=top;spacingLeft=4;spacingRight=4;overflow=hidden;rotatable=0;points=[[0,0.5],[1,0.5]];portConstraint=eastwest;whiteSpace=wrap;html=1;" parent="nPPL16FtD3WXAmP0PZX--6" vertex="1">
          <mxGeometry y="26" width="140" height="26" as="geometry" />
        </mxCell>
        <mxCell id="nPPL16FtD3WXAmP0PZX--8" value="sender" style="text;strokeColor=none;fillColor=none;align=left;verticalAlign=top;spacingLeft=4;spacingRight=4;overflow=hidden;rotatable=0;points=[[0,0.5],[1,0.5]];portConstraint=eastwest;whiteSpace=wrap;html=1;" parent="nPPL16FtD3WXAmP0PZX--6" vertex="1">
          <mxGeometry y="52" width="140" height="26" as="geometry" />
        </mxCell>
        <mxCell id="nPPL16FtD3WXAmP0PZX--9" value="recepient" style="text;strokeColor=none;fillColor=none;align=left;verticalAlign=top;spacingLeft=4;spacingRight=4;overflow=hidden;rotatable=0;points=[[0,0.5],[1,0.5]];portConstraint=eastwest;whiteSpace=wrap;html=1;" parent="nPPL16FtD3WXAmP0PZX--6" vertex="1">
          <mxGeometry y="78" width="140" height="26" as="geometry" />
        </mxCell>
        <mxCell id="nPPL16FtD3WXAmP0PZX--10" value="content" style="text;strokeColor=none;fillColor=none;align=left;verticalAlign=top;spacingLeft=4;spacingRight=4;overflow=hidden;rotatable=0;points=[[0,0.5],[1,0.5]];portConstraint=eastwest;whiteSpace=wrap;html=1;" parent="nPPL16FtD3WXAmP0PZX--6" vertex="1">
          <mxGeometry y="104" width="140" height="26" as="geometry" />
        </mxCell>
        <mxCell id="nPPL16FtD3WXAmP0PZX--11" value="date" style="text;strokeColor=none;fillColor=none;align=left;verticalAlign=top;spacingLeft=4;spacingRight=4;overflow=hidden;rotatable=0;points=[[0,0.5],[1,0.5]];portConstraint=eastwest;whiteSpace=wrap;html=1;" parent="nPPL16FtD3WXAmP0PZX--6" vertex="1">
          <mxGeometry y="130" width="140" height="26" as="geometry" />
        </mxCell>
        <mxCell id="nPPL16FtD3WXAmP0PZX--14" style="edgeStyle=orthogonalEdgeStyle;rounded=0;orthogonalLoop=1;jettySize=auto;html=1;entryX=1;entryY=0.5;entryDx=0;entryDy=0;endArrow=ERmany;endFill=0;startArrow=ERmandOne;startFill=0;" parent="1" source="WRttjeE3I7V11c35sN3d-17" target="nPPL16FtD3WXAmP0PZX--2" edge="1">
          <mxGeometry relative="1" as="geometry" />
        </mxCell>
        <mxCell id="nPPL16FtD3WXAmP0PZX--15" style="edgeStyle=orthogonalEdgeStyle;rounded=0;orthogonalLoop=1;jettySize=auto;html=1;startArrow=ERmandOne;startFill=0;endArrow=ERmandOne;endFill=0;" parent="1" source="WRttjeE3I7V11c35sN3d-11" target="WRttjeE3I7V11c35sN3d-21" edge="1">
          <mxGeometry relative="1" as="geometry" />
        </mxCell>
        <mxCell id="nPPL16FtD3WXAmP0PZX--20" style="edgeStyle=orthogonalEdgeStyle;rounded=0;orthogonalLoop=1;jettySize=auto;html=1;entryX=1;entryY=0.5;entryDx=0;entryDy=0;endArrow=ERmany;endFill=0;startArrow=ERmandOne;startFill=0;" parent="1" source="nPPL16FtD3WXAmP0PZX--16" target="WRttjeE3I7V11c35sN3d-15" edge="1">
          <mxGeometry relative="1" as="geometry" />
        </mxCell>
        <mxCell id="nPPL16FtD3WXAmP0PZX--16" value="Category" style="swimlane;fontStyle=0;childLayout=stackLayout;horizontal=1;startSize=26;fillColor=#fff2cc;horizontalStack=0;resizeParent=1;resizeParentMax=0;resizeLast=0;collapsible=1;marginBottom=0;whiteSpace=wrap;html=1;strokeColor=#d6b656;" parent="1" vertex="1">
          <mxGeometry x="608" y="27" width="140" height="104" as="geometry" />
        </mxCell>
        <mxCell id="nPPL16FtD3WXAmP0PZX--17" value="id" style="text;strokeColor=none;fillColor=none;align=left;verticalAlign=top;spacingLeft=4;spacingRight=4;overflow=hidden;rotatable=0;points=[[0,0.5],[1,0.5]];portConstraint=eastwest;whiteSpace=wrap;html=1;" parent="nPPL16FtD3WXAmP0PZX--16" vertex="1">
          <mxGeometry y="26" width="140" height="26" as="geometry" />
        </mxCell>
        <mxCell id="nPPL16FtD3WXAmP0PZX--18" value="name" style="text;strokeColor=none;fillColor=none;align=left;verticalAlign=top;spacingLeft=4;spacingRight=4;overflow=hidden;rotatable=0;points=[[0,0.5],[1,0.5]];portConstraint=eastwest;whiteSpace=wrap;html=1;" parent="nPPL16FtD3WXAmP0PZX--16" vertex="1">
          <mxGeometry y="52" width="140" height="26" as="geometry" />
        </mxCell>
        <mxCell id="nPPL16FtD3WXAmP0PZX--19" value="description" style="text;strokeColor=none;fillColor=none;align=left;verticalAlign=top;spacingLeft=4;spacingRight=4;overflow=hidden;rotatable=0;points=[[0,0.5],[1,0.5]];portConstraint=eastwest;whiteSpace=wrap;html=1;" parent="nPPL16FtD3WXAmP0PZX--16" vertex="1">
          <mxGeometry y="78" width="140" height="26" as="geometry" />
        </mxCell>
        <mxCell id="nPPL16FtD3WXAmP0PZX--21" value="Address" style="swimlane;fontStyle=0;childLayout=stackLayout;horizontal=1;startSize=26;fillColor=#d5e8d4;horizontalStack=0;resizeParent=1;resizeParentMax=0;resizeLast=0;collapsible=1;marginBottom=0;whiteSpace=wrap;html=1;strokeColor=#82b366;" parent="1" vertex="1">
          <mxGeometry x="370" y="-80" width="140" height="130" as="geometry" />
        </mxCell>
        <mxCell id="nPPL16FtD3WXAmP0PZX--22" value="id" style="text;strokeColor=none;fillColor=none;align=left;verticalAlign=top;spacingLeft=4;spacingRight=4;overflow=hidden;rotatable=0;points=[[0,0.5],[1,0.5]];portConstraint=eastwest;whiteSpace=wrap;html=1;" parent="nPPL16FtD3WXAmP0PZX--21" vertex="1">
          <mxGeometry y="26" width="140" height="26" as="geometry" />
        </mxCell>
        <mxCell id="nPPL16FtD3WXAmP0PZX--23" value="street" style="text;strokeColor=none;fillColor=none;align=left;verticalAlign=top;spacingLeft=4;spacingRight=4;overflow=hidden;rotatable=0;points=[[0,0.5],[1,0.5]];portConstraint=eastwest;whiteSpace=wrap;html=1;" parent="nPPL16FtD3WXAmP0PZX--21" vertex="1">
          <mxGeometry y="52" width="140" height="26" as="geometry" />
        </mxCell>
        <mxCell id="nPPL16FtD3WXAmP0PZX--24" value="houseNumber" style="text;strokeColor=none;fillColor=none;align=left;verticalAlign=top;spacingLeft=4;spacingRight=4;overflow=hidden;rotatable=0;points=[[0,0.5],[1,0.5]];portConstraint=eastwest;whiteSpace=wrap;html=1;" parent="nPPL16FtD3WXAmP0PZX--21" vertex="1">
          <mxGeometry y="78" width="140" height="26" as="geometry" />
        </mxCell>
        <mxCell id="nPPL16FtD3WXAmP0PZX--25" value="zipCode" style="text;strokeColor=none;fillColor=none;align=left;verticalAlign=top;spacingLeft=4;spacingRight=4;overflow=hidden;rotatable=0;points=[[0,0.5],[1,0.5]];portConstraint=eastwest;whiteSpace=wrap;html=1;" parent="nPPL16FtD3WXAmP0PZX--21" vertex="1">
          <mxGeometry y="104" width="140" height="26" as="geometry" />
        </mxCell>
        <mxCell id="nPPL16FtD3WXAmP0PZX--26" style="edgeStyle=orthogonalEdgeStyle;rounded=0;orthogonalLoop=1;jettySize=auto;html=1;entryX=1;entryY=0.5;entryDx=0;entryDy=0;endArrow=ERmandOne;endFill=0;startArrow=ERmandOne;startFill=0;" parent="1" source="nPPL16FtD3WXAmP0PZX--22" target="WRttjeE3I7V11c35sN3d-2" edge="1">
          <mxGeometry relative="1" as="geometry" />
        </mxCell>
        <mxCell id="nPPL16FtD3WXAmP0PZX--28" style="edgeStyle=orthogonalEdgeStyle;rounded=0;orthogonalLoop=1;jettySize=auto;html=1;entryX=1;entryY=0.5;entryDx=0;entryDy=0;exitX=0;exitY=0.5;exitDx=0;exitDy=0;endArrow=ERmandOne;endFill=0;startArrow=ERmandOne;startFill=0;" parent="1" source="WRttjeE3I7V11c35sN3d-12" target="nPPL16FtD3WXAmP0PZX--7" edge="1">
          <mxGeometry relative="1" as="geometry" />
        </mxCell>
      </root>
    </mxGraphModel>
  </diagram>
  <diagram name="domain-class-diagram" id="mql5I4AHV_EOIbO-FXmZ">
    <mxGraphModel dx="1764" dy="1075" grid="0" gridSize="10" guides="0" tooltips="1" connect="0" arrows="0" fold="1" page="0" pageScale="1" pageWidth="1169" pageHeight="827" math="0" shadow="0">
      <root>
        <mxCell id="QaSKw-nrApPyZHBpUXGP-0" />
        <mxCell id="QaSKw-nrApPyZHBpUXGP-1" parent="QaSKw-nrApPyZHBpUXGP-0" />
        <mxCell id="tCyhS_AfBA6SBSUrJkXq-4" value="&lt;b&gt;Notification Domain&lt;/b&gt;" style="rounded=0;whiteSpace=wrap;html=1;fillColor=none;strokeColor=#9673a6;strokeWidth=3;verticalAlign=top;" parent="QaSKw-nrApPyZHBpUXGP-1" vertex="1">
          <mxGeometry x="-210" y="236" width="200" height="200" as="geometry" />
        </mxCell>
        <mxCell id="tCyhS_AfBA6SBSUrJkXq-3" value="&lt;b&gt;Payment Domain&lt;/b&gt;" style="rounded=0;whiteSpace=wrap;html=1;fillColor=none;strokeColor=#d79b00;strokeWidth=3;verticalAlign=top;" parent="QaSKw-nrApPyZHBpUXGP-1" vertex="1">
          <mxGeometry x="-210" y="-20" width="200" height="200" as="geometry" />
        </mxCell>
        <mxCell id="tCyhS_AfBA6SBSUrJkXq-2" value="&lt;b&gt;Product Domain&lt;/b&gt;" style="rounded=0;whiteSpace=wrap;html=1;fillColor=none;strokeColor=#d6b656;strokeWidth=3;verticalAlign=top;" parent="QaSKw-nrApPyZHBpUXGP-1" vertex="1">
          <mxGeometry x="490" y="40" width="360" height="320" as="geometry" />
        </mxCell>
        <mxCell id="tCyhS_AfBA6SBSUrJkXq-1" value="&lt;b&gt;Order Domain&lt;/b&gt;" style="rounded=0;whiteSpace=wrap;html=1;fillColor=none;strokeColor=#6c8ebf;strokeWidth=3;verticalAlign=top;" parent="QaSKw-nrApPyZHBpUXGP-1" vertex="1">
          <mxGeometry x="50" y="150" width="370" height="350" as="geometry" />
        </mxCell>
        <mxCell id="tCyhS_AfBA6SBSUrJkXq-0" value="&lt;b&gt;Customer Domain&lt;/b&gt;" style="rounded=0;whiteSpace=wrap;html=1;fillColor=none;strokeColor=#82b366;strokeWidth=3;verticalAlign=top;" parent="QaSKw-nrApPyZHBpUXGP-1" vertex="1">
          <mxGeometry x="40" y="-170" width="490" height="200" as="geometry" />
        </mxCell>
        <mxCell id="QaSKw-nrApPyZHBpUXGP-2" style="edgeStyle=orthogonalEdgeStyle;rounded=0;orthogonalLoop=1;jettySize=auto;html=1;entryX=0.5;entryY=0;entryDx=0;entryDy=0;endArrow=ERmany;endFill=0;startArrow=ERmandOne;startFill=0;" parent="QaSKw-nrApPyZHBpUXGP-1" source="QaSKw-nrApPyZHBpUXGP-3" target="QaSKw-nrApPyZHBpUXGP-9" edge="1">
          <mxGeometry relative="1" as="geometry" />
        </mxCell>
        <mxCell id="QaSKw-nrApPyZHBpUXGP-3" value="Customer" style="swimlane;fontStyle=0;childLayout=stackLayout;horizontal=1;startSize=26;fillColor=#d5e8d4;horizontalStack=0;resizeParent=1;resizeParentMax=0;resizeLast=0;collapsible=1;marginBottom=0;whiteSpace=wrap;html=1;strokeColor=#82b366;" parent="QaSKw-nrApPyZHBpUXGP-1" vertex="1">
          <mxGeometry x="70" y="-130" width="140" height="130" as="geometry" />
        </mxCell>
        <mxCell id="QaSKw-nrApPyZHBpUXGP-4" value="id" style="text;strokeColor=none;fillColor=none;align=left;verticalAlign=top;spacingLeft=4;spacingRight=4;overflow=hidden;rotatable=0;points=[[0,0.5],[1,0.5]];portConstraint=eastwest;whiteSpace=wrap;html=1;" parent="QaSKw-nrApPyZHBpUXGP-3" vertex="1">
          <mxGeometry y="26" width="140" height="26" as="geometry" />
        </mxCell>
        <mxCell id="QaSKw-nrApPyZHBpUXGP-5" value="firstname" style="text;strokeColor=none;fillColor=none;align=left;verticalAlign=top;spacingLeft=4;spacingRight=4;overflow=hidden;rotatable=0;points=[[0,0.5],[1,0.5]];portConstraint=eastwest;whiteSpace=wrap;html=1;" parent="QaSKw-nrApPyZHBpUXGP-3" vertex="1">
          <mxGeometry y="52" width="140" height="26" as="geometry" />
        </mxCell>
        <mxCell id="QaSKw-nrApPyZHBpUXGP-6" value="lastname" style="text;strokeColor=none;fillColor=none;align=left;verticalAlign=top;spacingLeft=4;spacingRight=4;overflow=hidden;rotatable=0;points=[[0,0.5],[1,0.5]];portConstraint=eastwest;whiteSpace=wrap;html=1;" parent="QaSKw-nrApPyZHBpUXGP-3" vertex="1">
          <mxGeometry y="78" width="140" height="26" as="geometry" />
        </mxCell>
        <mxCell id="QaSKw-nrApPyZHBpUXGP-7" value="email" style="text;strokeColor=none;fillColor=none;align=left;verticalAlign=top;spacingLeft=4;spacingRight=4;overflow=hidden;rotatable=0;points=[[0,0.5],[1,0.5]];portConstraint=eastwest;whiteSpace=wrap;html=1;" parent="QaSKw-nrApPyZHBpUXGP-3" vertex="1">
          <mxGeometry y="104" width="140" height="26" as="geometry" />
        </mxCell>
        <mxCell id="QaSKw-nrApPyZHBpUXGP-8" style="edgeStyle=orthogonalEdgeStyle;rounded=0;orthogonalLoop=1;jettySize=auto;html=1;entryX=0;entryY=0.5;entryDx=0;entryDy=0;endArrow=ERmany;endFill=0;startArrow=ERmandOne;startFill=0;" parent="QaSKw-nrApPyZHBpUXGP-1" source="QaSKw-nrApPyZHBpUXGP-9" target="QaSKw-nrApPyZHBpUXGP-26" edge="1">
          <mxGeometry relative="1" as="geometry" />
        </mxCell>
        <mxCell id="QaSKw-nrApPyZHBpUXGP-9" value="Order" style="swimlane;fontStyle=0;childLayout=stackLayout;horizontal=1;startSize=26;fillColor=#dae8fc;horizontalStack=0;resizeParent=1;resizeParentMax=0;resizeLast=0;collapsible=1;marginBottom=0;whiteSpace=wrap;html=1;strokeColor=#6c8ebf;" parent="QaSKw-nrApPyZHBpUXGP-1" vertex="1">
          <mxGeometry x="70" y="200" width="140" height="104" as="geometry" />
        </mxCell>
        <mxCell id="QaSKw-nrApPyZHBpUXGP-10" value="id" style="text;strokeColor=none;fillColor=none;align=left;verticalAlign=top;spacingLeft=4;spacingRight=4;overflow=hidden;rotatable=0;points=[[0,0.5],[1,0.5]];portConstraint=eastwest;whiteSpace=wrap;html=1;" parent="QaSKw-nrApPyZHBpUXGP-9" vertex="1">
          <mxGeometry y="26" width="140" height="26" as="geometry" />
        </mxCell>
        <mxCell id="QaSKw-nrApPyZHBpUXGP-11" value="orderDate" style="text;strokeColor=none;fillColor=none;align=left;verticalAlign=top;spacingLeft=4;spacingRight=4;overflow=hidden;rotatable=0;points=[[0,0.5],[1,0.5]];portConstraint=eastwest;whiteSpace=wrap;html=1;" parent="QaSKw-nrApPyZHBpUXGP-9" vertex="1">
          <mxGeometry y="52" width="140" height="26" as="geometry" />
        </mxCell>
        <mxCell id="QaSKw-nrApPyZHBpUXGP-12" value="reference" style="text;strokeColor=none;fillColor=none;align=left;verticalAlign=top;spacingLeft=4;spacingRight=4;overflow=hidden;rotatable=0;points=[[0,0.5],[1,0.5]];portConstraint=eastwest;whiteSpace=wrap;html=1;" parent="QaSKw-nrApPyZHBpUXGP-9" vertex="1">
          <mxGeometry y="78" width="140" height="26" as="geometry" />
        </mxCell>
        <mxCell id="QaSKw-nrApPyZHBpUXGP-13" value="Product" style="swimlane;fontStyle=0;childLayout=stackLayout;horizontal=1;startSize=26;fillColor=#fff2cc;horizontalStack=0;resizeParent=1;resizeParentMax=0;resizeLast=0;collapsible=1;marginBottom=0;whiteSpace=wrap;html=1;strokeColor=#d6b656;" parent="QaSKw-nrApPyZHBpUXGP-1" vertex="1">
          <mxGeometry x="530" y="182" width="140" height="156" as="geometry" />
        </mxCell>
        <mxCell id="QaSKw-nrApPyZHBpUXGP-14" value="id" style="text;strokeColor=none;fillColor=none;align=left;verticalAlign=top;spacingLeft=4;spacingRight=4;overflow=hidden;rotatable=0;points=[[0,0.5],[1,0.5]];portConstraint=eastwest;whiteSpace=wrap;html=1;" parent="QaSKw-nrApPyZHBpUXGP-13" vertex="1">
          <mxGeometry y="26" width="140" height="26" as="geometry" />
        </mxCell>
        <mxCell id="QaSKw-nrApPyZHBpUXGP-15" value="name" style="text;strokeColor=none;fillColor=none;align=left;verticalAlign=top;spacingLeft=4;spacingRight=4;overflow=hidden;rotatable=0;points=[[0,0.5],[1,0.5]];portConstraint=eastwest;whiteSpace=wrap;html=1;" parent="QaSKw-nrApPyZHBpUXGP-13" vertex="1">
          <mxGeometry y="52" width="140" height="26" as="geometry" />
        </mxCell>
        <mxCell id="QaSKw-nrApPyZHBpUXGP-16" value="description" style="text;strokeColor=none;fillColor=none;align=left;verticalAlign=top;spacingLeft=4;spacingRight=4;overflow=hidden;rotatable=0;points=[[0,0.5],[1,0.5]];portConstraint=eastwest;whiteSpace=wrap;html=1;" parent="QaSKw-nrApPyZHBpUXGP-13" vertex="1">
          <mxGeometry y="78" width="140" height="26" as="geometry" />
        </mxCell>
        <mxCell id="QaSKw-nrApPyZHBpUXGP-17" value="availableQuantity" style="text;strokeColor=none;fillColor=none;align=left;verticalAlign=top;spacingLeft=4;spacingRight=4;overflow=hidden;rotatable=0;points=[[0,0.5],[1,0.5]];portConstraint=eastwest;whiteSpace=wrap;html=1;" parent="QaSKw-nrApPyZHBpUXGP-13" vertex="1">
          <mxGeometry y="104" width="140" height="26" as="geometry" />
        </mxCell>
        <mxCell id="QaSKw-nrApPyZHBpUXGP-18" value="price" style="text;strokeColor=none;fillColor=none;align=left;verticalAlign=top;spacingLeft=4;spacingRight=4;overflow=hidden;rotatable=0;points=[[0,0.5],[1,0.5]];portConstraint=eastwest;whiteSpace=wrap;html=1;" parent="QaSKw-nrApPyZHBpUXGP-13" vertex="1">
          <mxGeometry y="130" width="140" height="26" as="geometry" />
        </mxCell>
        <mxCell id="QaSKw-nrApPyZHBpUXGP-19" style="edgeStyle=orthogonalEdgeStyle;rounded=0;orthogonalLoop=1;jettySize=auto;html=1;entryX=0.5;entryY=0;entryDx=0;entryDy=0;startArrow=ERmandOne;startFill=0;endArrow=ERmandOne;endFill=0;" parent="QaSKw-nrApPyZHBpUXGP-1" source="QaSKw-nrApPyZHBpUXGP-20" target="QaSKw-nrApPyZHBpUXGP-28" edge="1">
          <mxGeometry relative="1" as="geometry" />
        </mxCell>
        <mxCell id="QaSKw-nrApPyZHBpUXGP-20" value="Payment" style="swimlane;fontStyle=0;childLayout=stackLayout;horizontal=1;startSize=26;fillColor=#ffe6cc;horizontalStack=0;resizeParent=1;resizeParentMax=0;resizeLast=0;collapsible=1;marginBottom=0;whiteSpace=wrap;html=1;strokeColor=#d79b00;" parent="QaSKw-nrApPyZHBpUXGP-1" vertex="1">
          <mxGeometry x="-180" y="20" width="140" height="130" as="geometry" />
        </mxCell>
        <mxCell id="QaSKw-nrApPyZHBpUXGP-21" value="id" style="text;strokeColor=none;fillColor=none;align=left;verticalAlign=top;spacingLeft=4;spacingRight=4;overflow=hidden;rotatable=0;points=[[0,0.5],[1,0.5]];portConstraint=eastwest;whiteSpace=wrap;html=1;" parent="QaSKw-nrApPyZHBpUXGP-20" vertex="1">
          <mxGeometry y="26" width="140" height="26" as="geometry" />
        </mxCell>
        <mxCell id="QaSKw-nrApPyZHBpUXGP-22" value="reference" style="text;strokeColor=none;fillColor=none;align=left;verticalAlign=top;spacingLeft=4;spacingRight=4;overflow=hidden;rotatable=0;points=[[0,0.5],[1,0.5]];portConstraint=eastwest;whiteSpace=wrap;html=1;" parent="QaSKw-nrApPyZHBpUXGP-20" vertex="1">
          <mxGeometry y="52" width="140" height="26" as="geometry" />
        </mxCell>
        <mxCell id="QaSKw-nrApPyZHBpUXGP-23" value="amount" style="text;strokeColor=none;fillColor=none;align=left;verticalAlign=top;spacingLeft=4;spacingRight=4;overflow=hidden;rotatable=0;points=[[0,0.5],[1,0.5]];portConstraint=eastwest;whiteSpace=wrap;html=1;" parent="QaSKw-nrApPyZHBpUXGP-20" vertex="1">
          <mxGeometry y="78" width="140" height="26" as="geometry" />
        </mxCell>
        <mxCell id="QaSKw-nrApPyZHBpUXGP-24" value="status" style="text;strokeColor=none;fillColor=none;align=left;verticalAlign=top;spacingLeft=4;spacingRight=4;overflow=hidden;rotatable=0;points=[[0,0.5],[1,0.5]];portConstraint=eastwest;whiteSpace=wrap;html=1;" parent="QaSKw-nrApPyZHBpUXGP-20" vertex="1">
          <mxGeometry y="104" width="140" height="26" as="geometry" />
        </mxCell>
        <mxCell id="QaSKw-nrApPyZHBpUXGP-25" value="OrderLine" style="swimlane;fontStyle=0;childLayout=stackLayout;horizontal=1;startSize=26;fillColor=#dae8fc;horizontalStack=0;resizeParent=1;resizeParentMax=0;resizeLast=0;collapsible=1;marginBottom=0;whiteSpace=wrap;html=1;strokeColor=#6c8ebf;" parent="QaSKw-nrApPyZHBpUXGP-1" vertex="1">
          <mxGeometry x="240" y="380" width="140" height="78" as="geometry" />
        </mxCell>
        <mxCell id="QaSKw-nrApPyZHBpUXGP-26" value="id" style="text;strokeColor=none;fillColor=none;align=left;verticalAlign=top;spacingLeft=4;spacingRight=4;overflow=hidden;rotatable=0;points=[[0,0.5],[1,0.5]];portConstraint=eastwest;whiteSpace=wrap;html=1;" parent="QaSKw-nrApPyZHBpUXGP-25" vertex="1">
          <mxGeometry y="26" width="140" height="26" as="geometry" />
        </mxCell>
        <mxCell id="QaSKw-nrApPyZHBpUXGP-27" value="quantity" style="text;strokeColor=none;fillColor=none;align=left;verticalAlign=top;spacingLeft=4;spacingRight=4;overflow=hidden;rotatable=0;points=[[0,0.5],[1,0.5]];portConstraint=eastwest;whiteSpace=wrap;html=1;" parent="QaSKw-nrApPyZHBpUXGP-25" vertex="1">
          <mxGeometry y="52" width="140" height="26" as="geometry" />
        </mxCell>
        <mxCell id="QaSKw-nrApPyZHBpUXGP-28" value="Notification" style="swimlane;fontStyle=0;childLayout=stackLayout;horizontal=1;startSize=26;fillColor=#e1d5e7;horizontalStack=0;resizeParent=1;resizeParentMax=0;resizeLast=0;collapsible=1;marginBottom=0;whiteSpace=wrap;html=1;strokeColor=#9673a6;" parent="QaSKw-nrApPyZHBpUXGP-1" vertex="1">
          <mxGeometry x="-180" y="270" width="140" height="156" as="geometry" />
        </mxCell>
        <mxCell id="QaSKw-nrApPyZHBpUXGP-29" value="id" style="text;strokeColor=none;fillColor=none;align=left;verticalAlign=top;spacingLeft=4;spacingRight=4;overflow=hidden;rotatable=0;points=[[0,0.5],[1,0.5]];portConstraint=eastwest;whiteSpace=wrap;html=1;" parent="QaSKw-nrApPyZHBpUXGP-28" vertex="1">
          <mxGeometry y="26" width="140" height="26" as="geometry" />
        </mxCell>
        <mxCell id="QaSKw-nrApPyZHBpUXGP-30" value="sender" style="text;strokeColor=none;fillColor=none;align=left;verticalAlign=top;spacingLeft=4;spacingRight=4;overflow=hidden;rotatable=0;points=[[0,0.5],[1,0.5]];portConstraint=eastwest;whiteSpace=wrap;html=1;" parent="QaSKw-nrApPyZHBpUXGP-28" vertex="1">
          <mxGeometry y="52" width="140" height="26" as="geometry" />
        </mxCell>
        <mxCell id="QaSKw-nrApPyZHBpUXGP-31" value="recepient" style="text;strokeColor=none;fillColor=none;align=left;verticalAlign=top;spacingLeft=4;spacingRight=4;overflow=hidden;rotatable=0;points=[[0,0.5],[1,0.5]];portConstraint=eastwest;whiteSpace=wrap;html=1;" parent="QaSKw-nrApPyZHBpUXGP-28" vertex="1">
          <mxGeometry y="78" width="140" height="26" as="geometry" />
        </mxCell>
        <mxCell id="QaSKw-nrApPyZHBpUXGP-32" value="content" style="text;strokeColor=none;fillColor=none;align=left;verticalAlign=top;spacingLeft=4;spacingRight=4;overflow=hidden;rotatable=0;points=[[0,0.5],[1,0.5]];portConstraint=eastwest;whiteSpace=wrap;html=1;" parent="QaSKw-nrApPyZHBpUXGP-28" vertex="1">
          <mxGeometry y="104" width="140" height="26" as="geometry" />
        </mxCell>
        <mxCell id="QaSKw-nrApPyZHBpUXGP-33" value="date" style="text;strokeColor=none;fillColor=none;align=left;verticalAlign=top;spacingLeft=4;spacingRight=4;overflow=hidden;rotatable=0;points=[[0,0.5],[1,0.5]];portConstraint=eastwest;whiteSpace=wrap;html=1;" parent="QaSKw-nrApPyZHBpUXGP-28" vertex="1">
          <mxGeometry y="130" width="140" height="26" as="geometry" />
        </mxCell>
        <mxCell id="QaSKw-nrApPyZHBpUXGP-34" style="edgeStyle=orthogonalEdgeStyle;rounded=0;orthogonalLoop=1;jettySize=auto;html=1;entryX=1;entryY=0.5;entryDx=0;entryDy=0;endArrow=ERmany;endFill=0;startArrow=ERmandOne;startFill=0;" parent="QaSKw-nrApPyZHBpUXGP-1" source="QaSKw-nrApPyZHBpUXGP-16" target="QaSKw-nrApPyZHBpUXGP-26" edge="1">
          <mxGeometry relative="1" as="geometry" />
        </mxCell>
        <mxCell id="QaSKw-nrApPyZHBpUXGP-35" style="edgeStyle=orthogonalEdgeStyle;rounded=0;orthogonalLoop=1;jettySize=auto;html=1;startArrow=ERmandOne;startFill=0;endArrow=ERmandOne;endFill=0;" parent="QaSKw-nrApPyZHBpUXGP-1" source="QaSKw-nrApPyZHBpUXGP-10" target="QaSKw-nrApPyZHBpUXGP-21" edge="1">
          <mxGeometry relative="1" as="geometry" />
        </mxCell>
        <mxCell id="QaSKw-nrApPyZHBpUXGP-36" style="edgeStyle=orthogonalEdgeStyle;rounded=0;orthogonalLoop=1;jettySize=auto;html=1;entryX=1;entryY=0.5;entryDx=0;entryDy=0;endArrow=ERmany;endFill=0;startArrow=ERmandOne;startFill=0;" parent="QaSKw-nrApPyZHBpUXGP-1" source="QaSKw-nrApPyZHBpUXGP-37" target="QaSKw-nrApPyZHBpUXGP-14" edge="1">
          <mxGeometry relative="1" as="geometry" />
        </mxCell>
        <mxCell id="QaSKw-nrApPyZHBpUXGP-37" value="Category" style="swimlane;fontStyle=0;childLayout=stackLayout;horizontal=1;startSize=26;fillColor=#fff2cc;horizontalStack=0;resizeParent=1;resizeParentMax=0;resizeLast=0;collapsible=1;marginBottom=0;whiteSpace=wrap;html=1;strokeColor=#d6b656;" parent="QaSKw-nrApPyZHBpUXGP-1" vertex="1">
          <mxGeometry x="690" y="76" width="140" height="104" as="geometry" />
        </mxCell>
        <mxCell id="QaSKw-nrApPyZHBpUXGP-38" value="id" style="text;strokeColor=none;fillColor=none;align=left;verticalAlign=top;spacingLeft=4;spacingRight=4;overflow=hidden;rotatable=0;points=[[0,0.5],[1,0.5]];portConstraint=eastwest;whiteSpace=wrap;html=1;" parent="QaSKw-nrApPyZHBpUXGP-37" vertex="1">
          <mxGeometry y="26" width="140" height="26" as="geometry" />
        </mxCell>
        <mxCell id="QaSKw-nrApPyZHBpUXGP-39" value="name" style="text;strokeColor=none;fillColor=none;align=left;verticalAlign=top;spacingLeft=4;spacingRight=4;overflow=hidden;rotatable=0;points=[[0,0.5],[1,0.5]];portConstraint=eastwest;whiteSpace=wrap;html=1;" parent="QaSKw-nrApPyZHBpUXGP-37" vertex="1">
          <mxGeometry y="52" width="140" height="26" as="geometry" />
        </mxCell>
        <mxCell id="QaSKw-nrApPyZHBpUXGP-40" value="description" style="text;strokeColor=none;fillColor=none;align=left;verticalAlign=top;spacingLeft=4;spacingRight=4;overflow=hidden;rotatable=0;points=[[0,0.5],[1,0.5]];portConstraint=eastwest;whiteSpace=wrap;html=1;" parent="QaSKw-nrApPyZHBpUXGP-37" vertex="1">
          <mxGeometry y="78" width="140" height="26" as="geometry" />
        </mxCell>
        <mxCell id="QaSKw-nrApPyZHBpUXGP-41" value="Address" style="swimlane;fontStyle=0;childLayout=stackLayout;horizontal=1;startSize=26;fillColor=#d5e8d4;horizontalStack=0;resizeParent=1;resizeParentMax=0;resizeLast=0;collapsible=1;marginBottom=0;whiteSpace=wrap;html=1;strokeColor=#82b366;" parent="QaSKw-nrApPyZHBpUXGP-1" vertex="1">
          <mxGeometry x="370" y="-130" width="140" height="130" as="geometry" />
        </mxCell>
        <mxCell id="QaSKw-nrApPyZHBpUXGP-42" value="id" style="text;strokeColor=none;fillColor=none;align=left;verticalAlign=top;spacingLeft=4;spacingRight=4;overflow=hidden;rotatable=0;points=[[0,0.5],[1,0.5]];portConstraint=eastwest;whiteSpace=wrap;html=1;" parent="QaSKw-nrApPyZHBpUXGP-41" vertex="1">
          <mxGeometry y="26" width="140" height="26" as="geometry" />
        </mxCell>
        <mxCell id="QaSKw-nrApPyZHBpUXGP-43" value="street" style="text;strokeColor=none;fillColor=none;align=left;verticalAlign=top;spacingLeft=4;spacingRight=4;overflow=hidden;rotatable=0;points=[[0,0.5],[1,0.5]];portConstraint=eastwest;whiteSpace=wrap;html=1;" parent="QaSKw-nrApPyZHBpUXGP-41" vertex="1">
          <mxGeometry y="52" width="140" height="26" as="geometry" />
        </mxCell>
        <mxCell id="QaSKw-nrApPyZHBpUXGP-44" value="houseNumber" style="text;strokeColor=none;fillColor=none;align=left;verticalAlign=top;spacingLeft=4;spacingRight=4;overflow=hidden;rotatable=0;points=[[0,0.5],[1,0.5]];portConstraint=eastwest;whiteSpace=wrap;html=1;" parent="QaSKw-nrApPyZHBpUXGP-41" vertex="1">
          <mxGeometry y="78" width="140" height="26" as="geometry" />
        </mxCell>
        <mxCell id="QaSKw-nrApPyZHBpUXGP-45" value="zipCode" style="text;strokeColor=none;fillColor=none;align=left;verticalAlign=top;spacingLeft=4;spacingRight=4;overflow=hidden;rotatable=0;points=[[0,0.5],[1,0.5]];portConstraint=eastwest;whiteSpace=wrap;html=1;" parent="QaSKw-nrApPyZHBpUXGP-41" vertex="1">
          <mxGeometry y="104" width="140" height="26" as="geometry" />
        </mxCell>
        <mxCell id="QaSKw-nrApPyZHBpUXGP-46" style="edgeStyle=orthogonalEdgeStyle;rounded=0;orthogonalLoop=1;jettySize=auto;html=1;entryX=1;entryY=0.5;entryDx=0;entryDy=0;endArrow=ERmandOne;endFill=0;startArrow=ERmandOne;startFill=0;" parent="QaSKw-nrApPyZHBpUXGP-1" source="QaSKw-nrApPyZHBpUXGP-42" target="QaSKw-nrApPyZHBpUXGP-4" edge="1">
          <mxGeometry relative="1" as="geometry" />
        </mxCell>
        <mxCell id="QaSKw-nrApPyZHBpUXGP-47" style="edgeStyle=orthogonalEdgeStyle;rounded=0;orthogonalLoop=1;jettySize=auto;html=1;entryX=1;entryY=0.5;entryDx=0;entryDy=0;exitX=0;exitY=0.5;exitDx=0;exitDy=0;endArrow=ERmandOne;endFill=0;startArrow=ERmandOne;startFill=0;" parent="QaSKw-nrApPyZHBpUXGP-1" source="QaSKw-nrApPyZHBpUXGP-11" target="QaSKw-nrApPyZHBpUXGP-29" edge="1">
          <mxGeometry relative="1" as="geometry" />
        </mxCell>
      </root>
    </mxGraphModel>
  </diagram>
  <diagram id="WqBAav9LYGF2_vxLiK12" name="async-communication">
    <mxGraphModel dx="1301" dy="846" grid="0" gridSize="10" guides="0" tooltips="1" connect="0" arrows="0" fold="1" page="0" pageScale="1" pageWidth="1169" pageHeight="827" math="0" shadow="0">
      <root>
        <mxCell id="0" />
        <mxCell id="1" parent="0" />
        <mxCell id="6x_ADi77GeF3N2mLvvYw-3" value="" style="shape=cylinder3;whiteSpace=wrap;html=1;boundedLbl=1;backgroundOutline=1;size=15;rotation=90;" parent="1" vertex="1">
          <mxGeometry x="122.5" y="-112.5" width="155" height="390" as="geometry" />
        </mxCell>
        <mxCell id="BDEwJi6k6QcXwIYJIIJd-1" style="edgeStyle=orthogonalEdgeStyle;rounded=0;orthogonalLoop=1;jettySize=auto;html=1;entryX=0;entryY=0.5;entryDx=0;entryDy=0;flowAnimation=1;strokeWidth=2;fillColor=#1ba1e2;strokeColor=#006EAF;" parent="1" source="6x_ADi77GeF3N2mLvvYw-1" target="KhQSRNgivRpIOInoGsQY-10" edge="1">
          <mxGeometry relative="1" as="geometry" />
        </mxCell>
        <mxCell id="6x_ADi77GeF3N2mLvvYw-1" value="Order service" style="shape=image;verticalLabelPosition=bottom;labelBackgroundColor=default;verticalAlign=top;aspect=fixed;imageAspect=0;image=https://images.ctfassets.net/gt6dp23g0g38/5DqlQtFKecFlkqQ8YGDT2p/aa945b648f44dd872e9a1b89f7d203ef/springboot.png;" parent="1" vertex="1">
          <mxGeometry x="-250" y="-40" width="77.94" height="70" as="geometry" />
        </mxCell>
        <mxCell id="BDEwJi6k6QcXwIYJIIJd-2" style="edgeStyle=orthogonalEdgeStyle;rounded=0;orthogonalLoop=1;jettySize=auto;html=1;entryX=0;entryY=0.5;entryDx=0;entryDy=0;flowAnimation=1;strokeWidth=2;fillColor=#1ba1e2;strokeColor=#006EAF;" parent="1" source="6x_ADi77GeF3N2mLvvYw-2" target="KhQSRNgivRpIOInoGsQY-2" edge="1">
          <mxGeometry relative="1" as="geometry" />
        </mxCell>
        <mxCell id="6x_ADi77GeF3N2mLvvYw-2" value="Payment service" style="shape=image;verticalLabelPosition=bottom;labelBackgroundColor=default;verticalAlign=top;aspect=fixed;imageAspect=0;image=https://images.ctfassets.net/gt6dp23g0g38/5DqlQtFKecFlkqQ8YGDT2p/aa945b648f44dd872e9a1b89f7d203ef/springboot.png;" parent="1" vertex="1">
          <mxGeometry x="-250" y="110" width="77.94" height="70" as="geometry" />
        </mxCell>
        <mxCell id="BDEwJi6k6QcXwIYJIIJd-3" style="edgeStyle=entityRelationEdgeStyle;rounded=0;orthogonalLoop=1;jettySize=auto;html=1;entryX=1;entryY=0.5;entryDx=0;entryDy=0;flowAnimation=1;strokeWidth=2;fillColor=#60a917;strokeColor=#2D7600;" parent="1" source="6x_ADi77GeF3N2mLvvYw-4" target="KhQSRNgivRpIOInoGsQY-10" edge="1">
          <mxGeometry relative="1" as="geometry" />
        </mxCell>
        <mxCell id="BDEwJi6k6QcXwIYJIIJd-4" style="edgeStyle=entityRelationEdgeStyle;rounded=0;orthogonalLoop=1;jettySize=auto;html=1;entryX=1;entryY=0.5;entryDx=0;entryDy=0;flowAnimation=1;strokeWidth=2;fillColor=#60a917;strokeColor=#2D7600;" parent="1" source="6x_ADi77GeF3N2mLvvYw-4" target="KhQSRNgivRpIOInoGsQY-2" edge="1">
          <mxGeometry relative="1" as="geometry" />
        </mxCell>
        <mxCell id="bptwb3j-g_TwmTFqLHP_-3" style="edgeStyle=orthogonalEdgeStyle;rounded=0;orthogonalLoop=1;jettySize=auto;html=1;shape=link;flowAnimation=1;strokeWidth=2;" parent="1" source="6x_ADi77GeF3N2mLvvYw-4" target="bptwb3j-g_TwmTFqLHP_-1" edge="1">
          <mxGeometry relative="1" as="geometry" />
        </mxCell>
        <mxCell id="bptwb3j-g_TwmTFqLHP_-5" style="edgeStyle=orthogonalEdgeStyle;rounded=0;orthogonalLoop=1;jettySize=auto;html=1;shape=link;" parent="1" source="6x_ADi77GeF3N2mLvvYw-4" target="bptwb3j-g_TwmTFqLHP_-4" edge="1">
          <mxGeometry relative="1" as="geometry" />
        </mxCell>
        <mxCell id="6x_ADi77GeF3N2mLvvYw-4" value="Notification service" style="shape=image;verticalLabelPosition=bottom;labelBackgroundColor=default;verticalAlign=top;aspect=fixed;imageAspect=0;image=https://images.ctfassets.net/gt6dp23g0g38/5DqlQtFKecFlkqQ8YGDT2p/aa945b648f44dd872e9a1b89f7d203ef/springboot.png;" parent="1" vertex="1">
          <mxGeometry x="550" y="47.5" width="77.94" height="70" as="geometry" />
        </mxCell>
        <mxCell id="KhQSRNgivRpIOInoGsQY-1" value="" style="group;fillColor=#dae8fc;strokeColor=#6c8ebf;container=0;" parent="1" vertex="1" connectable="0">
          <mxGeometry x="40" y="90" width="310" height="60" as="geometry" />
        </mxCell>
        <mxCell id="KhQSRNgivRpIOInoGsQY-2" value="payment-topic" style="rounded=0;whiteSpace=wrap;html=1;container=0;fillColor=#ffe6cc;strokeColor=#d79b00;verticalAlign=bottom;" parent="1" vertex="1">
          <mxGeometry x="40" y="90" width="310" height="60" as="geometry" />
        </mxCell>
        <mxCell id="KhQSRNgivRpIOInoGsQY-3" value="" style="shape=message;html=1;html=1;outlineConnect=0;labelPosition=center;verticalLabelPosition=bottom;align=center;verticalAlign=top;container=0;" parent="1" vertex="1">
          <mxGeometry x="50" y="107.5" width="40" height="25" as="geometry" />
        </mxCell>
        <mxCell id="KhQSRNgivRpIOInoGsQY-4" value="" style="shape=message;html=1;html=1;outlineConnect=0;labelPosition=center;verticalLabelPosition=bottom;align=center;verticalAlign=top;container=0;" parent="1" vertex="1">
          <mxGeometry x="100" y="107.5" width="40" height="25" as="geometry" />
        </mxCell>
        <mxCell id="KhQSRNgivRpIOInoGsQY-5" value="" style="shape=message;html=1;html=1;outlineConnect=0;labelPosition=center;verticalLabelPosition=bottom;align=center;verticalAlign=top;container=0;" parent="1" vertex="1">
          <mxGeometry x="150" y="107.5" width="40" height="25" as="geometry" />
        </mxCell>
        <mxCell id="KhQSRNgivRpIOInoGsQY-6" value="" style="shape=message;html=1;html=1;outlineConnect=0;labelPosition=center;verticalLabelPosition=bottom;align=center;verticalAlign=top;container=0;" parent="1" vertex="1">
          <mxGeometry x="200" y="107.5" width="40" height="25" as="geometry" />
        </mxCell>
        <mxCell id="KhQSRNgivRpIOInoGsQY-7" value="" style="shape=message;html=1;html=1;outlineConnect=0;labelPosition=center;verticalLabelPosition=bottom;align=center;verticalAlign=top;container=0;" parent="1" vertex="1">
          <mxGeometry x="250" y="107.5" width="40" height="25" as="geometry" />
        </mxCell>
        <mxCell id="KhQSRNgivRpIOInoGsQY-8" value="" style="shape=message;html=1;html=1;outlineConnect=0;labelPosition=center;verticalLabelPosition=bottom;align=center;verticalAlign=top;container=0;" parent="1" vertex="1">
          <mxGeometry x="300" y="107.5" width="40" height="25" as="geometry" />
        </mxCell>
        <mxCell id="KhQSRNgivRpIOInoGsQY-9" value="" style="group;fillColor=#dae8fc;strokeColor=#6c8ebf;container=0;" parent="1" vertex="1" connectable="0">
          <mxGeometry x="40" y="20" width="310" height="60" as="geometry" />
        </mxCell>
        <mxCell id="KhQSRNgivRpIOInoGsQY-10" value="order-topic" style="rounded=0;whiteSpace=wrap;html=1;container=0;fillColor=#dae8fc;strokeColor=#6c8ebf;verticalAlign=bottom;" parent="1" vertex="1">
          <mxGeometry x="40" y="20" width="310" height="60" as="geometry" />
        </mxCell>
        <mxCell id="KhQSRNgivRpIOInoGsQY-11" value="" style="shape=message;html=1;html=1;outlineConnect=0;labelPosition=center;verticalLabelPosition=bottom;align=center;verticalAlign=top;container=0;" parent="1" vertex="1">
          <mxGeometry x="50" y="37.5" width="40" height="25" as="geometry" />
        </mxCell>
        <mxCell id="KhQSRNgivRpIOInoGsQY-12" value="" style="shape=message;html=1;html=1;outlineConnect=0;labelPosition=center;verticalLabelPosition=bottom;align=center;verticalAlign=top;container=0;" parent="1" vertex="1">
          <mxGeometry x="100" y="37.5" width="40" height="25" as="geometry" />
        </mxCell>
        <mxCell id="KhQSRNgivRpIOInoGsQY-13" value="" style="shape=message;html=1;html=1;outlineConnect=0;labelPosition=center;verticalLabelPosition=bottom;align=center;verticalAlign=top;container=0;" parent="1" vertex="1">
          <mxGeometry x="150" y="37.5" width="40" height="25" as="geometry" />
        </mxCell>
        <mxCell id="KhQSRNgivRpIOInoGsQY-14" value="" style="shape=message;html=1;html=1;outlineConnect=0;labelPosition=center;verticalLabelPosition=bottom;align=center;verticalAlign=top;container=0;" parent="1" vertex="1">
          <mxGeometry x="200" y="37.5" width="40" height="25" as="geometry" />
        </mxCell>
        <mxCell id="KhQSRNgivRpIOInoGsQY-15" value="" style="shape=message;html=1;html=1;outlineConnect=0;labelPosition=center;verticalLabelPosition=bottom;align=center;verticalAlign=top;container=0;" parent="1" vertex="1">
          <mxGeometry x="250" y="37.5" width="40" height="25" as="geometry" />
        </mxCell>
        <mxCell id="KhQSRNgivRpIOInoGsQY-16" value="" style="shape=message;html=1;html=1;outlineConnect=0;labelPosition=center;verticalLabelPosition=bottom;align=center;verticalAlign=top;container=0;" parent="1" vertex="1">
          <mxGeometry x="300" y="37.5" width="40" height="25" as="geometry" />
        </mxCell>
        <mxCell id="BDEwJi6k6QcXwIYJIIJd-5" value="&lt;b&gt;Kafka Broker&lt;/b&gt;" style="text;html=1;align=center;verticalAlign=middle;resizable=0;points=[];autosize=1;strokeColor=none;fillColor=none;" parent="1" vertex="1">
          <mxGeometry x="122.5" y="160" width="100" height="30" as="geometry" />
        </mxCell>
        <mxCell id="bptwb3j-g_TwmTFqLHP_-1" value="" style="shape=image;verticalLabelPosition=bottom;labelBackgroundColor=default;verticalAlign=top;aspect=fixed;imageAspect=0;image=https://www.opc-router.de/wp-content/uploads/2021/03/mongodb_thumbnail.png;" parent="1" vertex="1">
          <mxGeometry x="553.65" y="204" width="70.63" height="95" as="geometry" />
        </mxCell>
        <mxCell id="bptwb3j-g_TwmTFqLHP_-2" value="" style="sketch=0;aspect=fixed;html=1;points=[];align=center;image;fontSize=12;image=img/lib/mscae/Docker.svg;fillColor=none;" parent="1" vertex="1">
          <mxGeometry x="520" y="258" width="50" height="41" as="geometry" />
        </mxCell>
        <mxCell id="bptwb3j-g_TwmTFqLHP_-4" value="" style="verticalLabelPosition=bottom;html=1;verticalAlign=top;strokeWidth=1;align=center;outlineConnect=0;dashed=0;outlineConnect=0;shape=mxgraph.aws3d.email_service;fillColor=#dae8fc;strokeColor=#6c8ebf;aspect=fixed;" parent="1" vertex="1">
          <mxGeometry x="560.65" y="-100" width="56.62" height="72" as="geometry" />
        </mxCell>
      </root>
    </mxGraphModel>
  </diagram>
  <diagram name="simple-ms-app" id="Hk2y3JhsyjX309pMNDhN">
    <mxGraphModel dx="2071" dy="1214" grid="0" gridSize="10" guides="1" tooltips="1" connect="0" arrows="0" fold="1" page="0" pageScale="1" pageWidth="1169" pageHeight="827" background="none" math="0" shadow="0">
      <root>
        <mxCell id="Mkz1561AUryzhJ5JRjOw-0" />
        <mxCell id="Mkz1561AUryzhJ5JRjOw-1" parent="Mkz1561AUryzhJ5JRjOw-0" />
        <mxCell id="Mkz1561AUryzhJ5JRjOw-2" value="" style="rounded=0;whiteSpace=wrap;html=1;sketch=0;fillColor=none;" parent="Mkz1561AUryzhJ5JRjOw-1" vertex="1">
          <mxGeometry x="213" y="66" width="938" height="595" as="geometry" />
        </mxCell>
        <mxCell id="Mkz1561AUryzhJ5JRjOw-3" style="edgeStyle=orthogonalEdgeStyle;rounded=0;orthogonalLoop=1;jettySize=auto;html=1;exitX=0.25;exitY=1;exitDx=0;exitDy=0;entryX=0.5;entryY=0;entryDx=0;entryDy=0;strokeColor=default;strokeWidth=2;fontSize=15;endSize=6;dashed=1;" parent="Mkz1561AUryzhJ5JRjOw-1" source="Mkz1561AUryzhJ5JRjOw-5" target="Mkz1561AUryzhJ5JRjOw-9" edge="1">
          <mxGeometry relative="1" as="geometry" />
        </mxCell>
        <mxCell id="Mkz1561AUryzhJ5JRjOw-4" value="Register" style="edgeLabel;html=1;align=center;verticalAlign=middle;resizable=0;points=[];fontSize=15;" parent="Mkz1561AUryzhJ5JRjOw-3" vertex="1" connectable="0">
          <mxGeometry x="-0.2134" y="-1" relative="1" as="geometry">
            <mxPoint as="offset" />
          </mxGeometry>
        </mxCell>
        <mxCell id="Mkz1561AUryzhJ5JRjOw-5" value="" style="rounded=0;whiteSpace=wrap;html=1;sketch=0;fillColor=none;dashed=1;" parent="Mkz1561AUryzhJ5JRjOw-1" vertex="1">
          <mxGeometry x="263" y="91" width="859" height="520" as="geometry" />
        </mxCell>
        <mxCell id="Mkz1561AUryzhJ5JRjOw-6" value="listen" style="edgeStyle=orthogonalEdgeStyle;rounded=0;orthogonalLoop=1;jettySize=auto;html=1;entryX=1;entryY=0.75;entryDx=0;entryDy=0;fontSize=15;endSize=6;strokeWidth=3;fillColor=#fa6800;strokeColor=#C73500;" parent="Mkz1561AUryzhJ5JRjOw-1" edge="1">
          <mxGeometry relative="1" as="geometry">
            <Array as="points">
              <mxPoint x="1046" y="232" />
            </Array>
            <mxPoint x="1045.9999999999995" y="286" as="sourcePoint" />
          </mxGeometry>
        </mxCell>
        <mxCell id="Mkz1561AUryzhJ5JRjOw-9" value="Eureka (Discovery server)" style="shape=image;verticalLabelPosition=bottom;labelBackgroundColor=default;verticalAlign=top;aspect=fixed;imageAspect=0;image=https://pbs.twimg.com/profile_images/1235868806079057921/fTL08u_H_400x400.png;imageBorder=default;" parent="Mkz1561AUryzhJ5JRjOw-1" vertex="1">
          <mxGeometry x="437" y="685" width="83" height="83" as="geometry" />
        </mxCell>
        <mxCell id="Mkz1561AUryzhJ5JRjOw-10" style="edgeStyle=orthogonalEdgeStyle;rounded=0;orthogonalLoop=1;jettySize=auto;html=1;fontSize=15;strokeWidth=1;fillColor=#a0522d;strokeColor=#6D1F00;shape=link;" parent="Mkz1561AUryzhJ5JRjOw-1" source="Mkz1561AUryzhJ5JRjOw-37" edge="1">
          <mxGeometry relative="1" as="geometry">
            <mxPoint x="699" y="161.5000000000001" as="targetPoint" />
          </mxGeometry>
        </mxCell>
        <mxCell id="Mkz1561AUryzhJ5JRjOw-11" style="edgeStyle=orthogonalEdgeStyle;rounded=0;orthogonalLoop=1;jettySize=auto;html=1;fontSize=15;strokeWidth=1;fillColor=#a0522d;strokeColor=#6D1F00;shape=link;" parent="Mkz1561AUryzhJ5JRjOw-1" source="Mkz1561AUryzhJ5JRjOw-16" target="Mkz1561AUryzhJ5JRjOw-18" edge="1">
          <mxGeometry relative="1" as="geometry" />
        </mxCell>
        <mxCell id="Mkz1561AUryzhJ5JRjOw-12" style="edgeStyle=orthogonalEdgeStyle;rounded=0;orthogonalLoop=1;jettySize=auto;html=1;fontSize=15;endSize=6;strokeWidth=2;strokeColor=#001DBC;fillColor=#0050ef;" parent="Mkz1561AUryzhJ5JRjOw-1" edge="1">
          <mxGeometry relative="1" as="geometry">
            <mxPoint x="502.19" y="488" as="sourcePoint" />
            <mxPoint x="502.19" y="203" as="targetPoint" />
          </mxGeometry>
        </mxCell>
        <mxCell id="Mkz1561AUryzhJ5JRjOw-13" value="HTTP" style="edgeLabel;html=1;align=center;verticalAlign=middle;resizable=0;points=[];fontSize=15;" parent="Mkz1561AUryzhJ5JRjOw-12" vertex="1" connectable="0">
          <mxGeometry x="-0.35" y="1" relative="1" as="geometry">
            <mxPoint x="-1" y="-56" as="offset" />
          </mxGeometry>
        </mxCell>
        <mxCell id="PV4jSnhk1A6-MapW2e3p-5" style="edgeStyle=orthogonalEdgeStyle;rounded=0;orthogonalLoop=1;jettySize=auto;html=1;exitX=0.75;exitY=0;exitDx=0;exitDy=0;entryX=0;entryY=0.5;entryDx=0;entryDy=0;" parent="Mkz1561AUryzhJ5JRjOw-1" source="Mkz1561AUryzhJ5JRjOw-16" target="PV4jSnhk1A6-MapW2e3p-3" edge="1">
          <mxGeometry relative="1" as="geometry" />
        </mxCell>
        <mxCell id="Mkz1561AUryzhJ5JRjOw-16" value="School" style="shape=image;verticalLabelPosition=bottom;labelBackgroundColor=default;verticalAlign=top;aspect=fixed;imageAspect=0;image=https://pbs.twimg.com/profile_images/1235868806079057921/fTL08u_H_400x400.png;imageBorder=default;" parent="Mkz1561AUryzhJ5JRjOw-1" vertex="1">
          <mxGeometry x="461" y="488" width="83" height="83" as="geometry" />
        </mxCell>
        <mxCell id="Mkz1561AUryzhJ5JRjOw-18" value="" style="shape=image;verticalLabelPosition=bottom;labelBackgroundColor=default;verticalAlign=top;aspect=fixed;imageAspect=0;image=https://upload.wikimedia.org/wikipedia/commons/thumb/b/ba/Database-postgres.svg/1448px-Database-postgres.svg.png;" parent="Mkz1561AUryzhJ5JRjOw-1" vertex="1">
          <mxGeometry x="699" y="479.6" width="70.63" height="99.8" as="geometry" />
        </mxCell>
        <mxCell id="Mkz1561AUryzhJ5JRjOw-19" value="" style="sketch=0;aspect=fixed;html=1;points=[];align=center;image;fontSize=12;image=img/lib/mscae/Docker.svg;fillColor=none;" parent="Mkz1561AUryzhJ5JRjOw-1" vertex="1">
          <mxGeometry x="739" y="547" width="50" height="41" as="geometry" />
        </mxCell>
        <mxCell id="Mkz1561AUryzhJ5JRjOw-25" style="edgeStyle=orthogonalEdgeStyle;rounded=0;orthogonalLoop=1;jettySize=auto;html=1;entryX=0.5;entryY=1;entryDx=0;entryDy=0;strokeColor=default;strokeWidth=2;fontSize=22;endSize=6;" parent="Mkz1561AUryzhJ5JRjOw-1" source="Mkz1561AUryzhJ5JRjOw-26" target="Mkz1561AUryzhJ5JRjOw-49" edge="1">
          <mxGeometry relative="1" as="geometry" />
        </mxCell>
        <mxCell id="Mkz1561AUryzhJ5JRjOw-26" value="Internet" style="outlineConnect=0;dashed=0;verticalLabelPosition=bottom;verticalAlign=top;align=center;html=1;shape=mxgraph.aws3.internet_3;fillColor=#D2D3D3;gradientColor=none;sketch=0;fontSize=15;" parent="Mkz1561AUryzhJ5JRjOw-1" vertex="1">
          <mxGeometry x="8" y="324" width="79.5" height="54" as="geometry" />
        </mxCell>
        <mxCell id="Mkz1561AUryzhJ5JRjOw-28" value="" style="endArrow=classic;html=1;rounded=0;fontSize=15;endSize=6;entryX=0;entryY=0.75;entryDx=0;entryDy=0;strokeWidth=3;strokeColor=#fcb603;fillColor=#ffcd28;gradientColor=#ffa500;exitX=0;exitY=0.5;exitDx=0;exitDy=0;" parent="Mkz1561AUryzhJ5JRjOw-1" source="Mkz1561AUryzhJ5JRjOw-5" target="Mkz1561AUryzhJ5JRjOw-37" edge="1">
          <mxGeometry width="50" height="50" relative="1" as="geometry">
            <mxPoint x="267" y="350" as="sourcePoint" />
            <mxPoint x="317" y="300" as="targetPoint" />
          </mxGeometry>
        </mxCell>
        <mxCell id="Mkz1561AUryzhJ5JRjOw-29" value="/students" style="edgeLabel;html=1;align=center;verticalAlign=middle;resizable=0;points=[];fontSize=15;" parent="Mkz1561AUryzhJ5JRjOw-28" vertex="1" connectable="0">
          <mxGeometry x="-0.5046" y="1" relative="1" as="geometry">
            <mxPoint as="offset" />
          </mxGeometry>
        </mxCell>
        <mxCell id="Mkz1561AUryzhJ5JRjOw-30" value="" style="endArrow=classic;html=1;rounded=0;fontSize=15;endSize=6;exitX=1;exitY=0.5;exitDx=0;exitDy=0;strokeWidth=3;strokeColor=#fcb603;fillColor=#ffcd28;gradientColor=#ffa500;" parent="Mkz1561AUryzhJ5JRjOw-1" target="Mkz1561AUryzhJ5JRjOw-16" edge="1">
          <mxGeometry width="50" height="50" relative="1" as="geometry">
            <mxPoint x="260.99999999999955" y="353" as="sourcePoint" />
            <mxPoint x="367.32" y="342" as="targetPoint" />
          </mxGeometry>
        </mxCell>
        <mxCell id="Mkz1561AUryzhJ5JRjOw-31" value="/schools" style="edgeLabel;html=1;align=center;verticalAlign=middle;resizable=0;points=[];fontSize=15;" parent="Mkz1561AUryzhJ5JRjOw-30" vertex="1" connectable="0">
          <mxGeometry x="0.2804" y="-3" relative="1" as="geometry">
            <mxPoint x="-82" y="-69" as="offset" />
          </mxGeometry>
        </mxCell>
        <mxCell id="PV4jSnhk1A6-MapW2e3p-4" style="edgeStyle=orthogonalEdgeStyle;rounded=0;orthogonalLoop=1;jettySize=auto;html=1;exitX=0.75;exitY=1;exitDx=0;exitDy=0;entryX=0;entryY=0.25;entryDx=0;entryDy=0;" parent="Mkz1561AUryzhJ5JRjOw-1" source="Mkz1561AUryzhJ5JRjOw-37" target="PV4jSnhk1A6-MapW2e3p-3" edge="1">
          <mxGeometry relative="1" as="geometry" />
        </mxCell>
        <mxCell id="Mkz1561AUryzhJ5JRjOw-37" value="Student" style="shape=image;verticalLabelPosition=bottom;labelBackgroundColor=default;verticalAlign=top;aspect=fixed;imageAspect=0;image=https://pbs.twimg.com/profile_images/1235868806079057921/fTL08u_H_400x400.png;imageBorder=default;" parent="Mkz1561AUryzhJ5JRjOw-1" vertex="1">
          <mxGeometry x="461" y="120" width="83" height="83" as="geometry" />
        </mxCell>
        <mxCell id="Mkz1561AUryzhJ5JRjOw-41" style="edgeStyle=orthogonalEdgeStyle;rounded=0;orthogonalLoop=1;jettySize=auto;html=1;entryX=0.77;entryY=0.999;entryDx=0;entryDy=0;entryPerimeter=0;dashed=1;strokeColor=default;strokeWidth=2;fontSize=15;endSize=6;" parent="Mkz1561AUryzhJ5JRjOw-1" source="Mkz1561AUryzhJ5JRjOw-44" target="Mkz1561AUryzhJ5JRjOw-5" edge="1">
          <mxGeometry relative="1" as="geometry" />
        </mxCell>
        <mxCell id="Mkz1561AUryzhJ5JRjOw-42" value="Pull configuration" style="edgeLabel;html=1;align=center;verticalAlign=middle;resizable=0;points=[];fontSize=15;" parent="Mkz1561AUryzhJ5JRjOw-41" vertex="1" connectable="0">
          <mxGeometry x="0.0577" y="1" relative="1" as="geometry">
            <mxPoint as="offset" />
          </mxGeometry>
        </mxCell>
        <mxCell id="Mkz1561AUryzhJ5JRjOw-43" value="" style="group" parent="Mkz1561AUryzhJ5JRjOw-1" vertex="1" connectable="0">
          <mxGeometry x="882" y="685" width="164.48000000000002" height="83" as="geometry" />
        </mxCell>
        <mxCell id="Mkz1561AUryzhJ5JRjOw-44" value="Config server" style="shape=image;verticalLabelPosition=bottom;labelBackgroundColor=default;verticalAlign=top;aspect=fixed;imageAspect=0;image=https://pbs.twimg.com/profile_images/1235868806079057921/fTL08u_H_400x400.png;imageBorder=default;" parent="Mkz1561AUryzhJ5JRjOw-43" vertex="1">
          <mxGeometry width="83" height="83" as="geometry" />
        </mxCell>
        <mxCell id="Mkz1561AUryzhJ5JRjOw-45" value="" style="shape=image;verticalLabelPosition=bottom;labelBackgroundColor=default;verticalAlign=top;aspect=fixed;imageAspect=0;image=https://cdn-icons-png.flaticon.com/512/25/25231.png;" parent="Mkz1561AUryzhJ5JRjOw-43" vertex="1">
          <mxGeometry x="90" y="27.129999999999995" width="29" height="29" as="geometry" />
        </mxCell>
        <mxCell id="Mkz1561AUryzhJ5JRjOw-46" value="" style="sketch=0;aspect=fixed;pointerEvents=1;shadow=0;dashed=0;html=1;strokeColor=none;labelPosition=center;verticalLabelPosition=bottom;verticalAlign=top;align=center;fillColor=#00188D;shape=mxgraph.azure.code_file" parent="Mkz1561AUryzhJ5JRjOw-43" vertex="1">
          <mxGeometry x="133.22000000000003" y="24.879999999999995" width="31.26" height="33.25" as="geometry" />
        </mxCell>
        <mxCell id="Mkz1561AUryzhJ5JRjOw-47" style="edgeStyle=orthogonalEdgeStyle;rounded=0;orthogonalLoop=1;jettySize=auto;html=1;dashed=1;strokeColor=default;strokeWidth=2;fontSize=15;endSize=6;" parent="Mkz1561AUryzhJ5JRjOw-1" source="Mkz1561AUryzhJ5JRjOw-44" target="Mkz1561AUryzhJ5JRjOw-9" edge="1">
          <mxGeometry relative="1" as="geometry" />
        </mxCell>
        <mxCell id="Mkz1561AUryzhJ5JRjOw-48" value="Pull configuration" style="edgeLabel;html=1;align=center;verticalAlign=middle;resizable=0;points=[];fontSize=22;" parent="Mkz1561AUryzhJ5JRjOw-47" vertex="1" connectable="0">
          <mxGeometry x="0.2079" y="1" relative="1" as="geometry">
            <mxPoint x="32" y="-1" as="offset" />
          </mxGeometry>
        </mxCell>
        <mxCell id="Mkz1561AUryzhJ5JRjOw-49" value="API Gateway" style="rounded=0;labelBackgroundColor=none;labelBorderColor=none;sketch=0;strokeColor=#006EAF;fontSize=22;fillColor=#1ba1e2;html=1;whiteSpace=wrap;rotation=90;fontColor=#ffffff;fontStyle=1" parent="Mkz1561AUryzhJ5JRjOw-1" vertex="1">
          <mxGeometry x="-48.25" y="322.25" width="522" height="57.5" as="geometry" />
        </mxCell>
        <mxCell id="Mkz1561AUryzhJ5JRjOw-50" value="" style="sketch=0;outlineConnect=0;dashed=0;verticalLabelPosition=bottom;verticalAlign=top;align=center;html=1;fontSize=12;fontStyle=0;aspect=fixed;pointerEvents=1;shape=mxgraph.aws4.gateway_load_balancer;labelBackgroundColor=none;labelBorderColor=none;" parent="Mkz1561AUryzhJ5JRjOw-1" vertex="1">
          <mxGeometry x="189.75" y="228" width="46" height="46" as="geometry" />
        </mxCell>
        <mxCell id="WYsTmNUXfwcSGCrvJzmU-0" value="" style="shape=image;verticalLabelPosition=bottom;labelBackgroundColor=default;verticalAlign=top;aspect=fixed;imageAspect=0;image=https://upload.wikimedia.org/wikipedia/commons/thumb/b/ba/Database-postgres.svg/1448px-Database-postgres.svg.png;" parent="Mkz1561AUryzhJ5JRjOw-1" vertex="1">
          <mxGeometry x="695" y="107.30000000000001" width="70.63" height="99.8" as="geometry" />
        </mxCell>
        <mxCell id="WYsTmNUXfwcSGCrvJzmU-1" value="" style="sketch=0;aspect=fixed;html=1;points=[];align=center;image;fontSize=12;image=img/lib/mscae/Docker.svg;fillColor=none;" parent="Mkz1561AUryzhJ5JRjOw-1" vertex="1">
          <mxGeometry x="735" y="174.7" width="50" height="41" as="geometry" />
        </mxCell>
        <mxCell id="PV4jSnhk1A6-MapW2e3p-3" value="" style="shape=image;verticalLabelPosition=bottom;labelBackgroundColor=default;verticalAlign=top;aspect=fixed;imageAspect=0;image=https://avatars.githubusercontent.com/u/11860887?s=280&amp;v=4;" parent="Mkz1561AUryzhJ5JRjOw-1" vertex="1">
          <mxGeometry x="873" y="299" width="104" height="104" as="geometry" />
        </mxCell>
      </root>
    </mxGraphModel>
  </diagram>
  <diagram id="bP6ZdW58V9GPx5OJXDwx" name="Page-3">
    <mxGraphModel dx="2471" dy="1214" grid="0" gridSize="10" guides="1" tooltips="1" connect="1" arrows="1" fold="1" page="0" pageScale="1" pageWidth="1169" pageHeight="827" math="0" shadow="0">
      <root>
        <mxCell id="0" />
        <mxCell id="1" parent="0" />
        <mxCell id="WWQ-MBUYeXolELqLjDh3-1" value="Student" style="swimlane;fontStyle=0;childLayout=stackLayout;horizontal=1;startSize=26;fillColor=none;horizontalStack=0;resizeParent=1;resizeParentMax=0;resizeLast=0;collapsible=1;marginBottom=0;whiteSpace=wrap;html=1;" parent="1" vertex="1">
          <mxGeometry x="-137" y="28" width="140" height="130" as="geometry" />
        </mxCell>
        <mxCell id="WWQ-MBUYeXolELqLjDh3-2" value="id" style="text;strokeColor=none;fillColor=none;align=left;verticalAlign=top;spacingLeft=4;spacingRight=4;overflow=hidden;rotatable=0;points=[[0,0.5],[1,0.5]];portConstraint=eastwest;whiteSpace=wrap;html=1;" parent="WWQ-MBUYeXolELqLjDh3-1" vertex="1">
          <mxGeometry y="26" width="140" height="26" as="geometry" />
        </mxCell>
        <mxCell id="WWQ-MBUYeXolELqLjDh3-3" value="firstname" style="text;strokeColor=none;fillColor=none;align=left;verticalAlign=top;spacingLeft=4;spacingRight=4;overflow=hidden;rotatable=0;points=[[0,0.5],[1,0.5]];portConstraint=eastwest;whiteSpace=wrap;html=1;" parent="WWQ-MBUYeXolELqLjDh3-1" vertex="1">
          <mxGeometry y="52" width="140" height="26" as="geometry" />
        </mxCell>
        <mxCell id="WWQ-MBUYeXolELqLjDh3-4" value="lastname" style="text;strokeColor=none;fillColor=none;align=left;verticalAlign=top;spacingLeft=4;spacingRight=4;overflow=hidden;rotatable=0;points=[[0,0.5],[1,0.5]];portConstraint=eastwest;whiteSpace=wrap;html=1;" parent="WWQ-MBUYeXolELqLjDh3-1" vertex="1">
          <mxGeometry y="78" width="140" height="26" as="geometry" />
        </mxCell>
        <mxCell id="WWQ-MBUYeXolELqLjDh3-9" value="email" style="text;strokeColor=none;fillColor=none;align=left;verticalAlign=top;spacingLeft=4;spacingRight=4;overflow=hidden;rotatable=0;points=[[0,0.5],[1,0.5]];portConstraint=eastwest;whiteSpace=wrap;html=1;" parent="WWQ-MBUYeXolELqLjDh3-1" vertex="1">
          <mxGeometry y="104" width="140" height="26" as="geometry" />
        </mxCell>
        <mxCell id="WWQ-MBUYeXolELqLjDh3-5" value="School" style="swimlane;fontStyle=0;childLayout=stackLayout;horizontal=1;startSize=26;fillColor=none;horizontalStack=0;resizeParent=1;resizeParentMax=0;resizeLast=0;collapsible=1;marginBottom=0;whiteSpace=wrap;html=1;" parent="1" vertex="1">
          <mxGeometry x="102" y="134" width="140" height="104" as="geometry" />
        </mxCell>
        <mxCell id="WWQ-MBUYeXolELqLjDh3-6" value="id" style="text;strokeColor=none;fillColor=none;align=left;verticalAlign=top;spacingLeft=4;spacingRight=4;overflow=hidden;rotatable=0;points=[[0,0.5],[1,0.5]];portConstraint=eastwest;whiteSpace=wrap;html=1;" parent="WWQ-MBUYeXolELqLjDh3-5" vertex="1">
          <mxGeometry y="26" width="140" height="26" as="geometry" />
        </mxCell>
        <mxCell id="WWQ-MBUYeXolELqLjDh3-7" value="name" style="text;strokeColor=none;fillColor=none;align=left;verticalAlign=top;spacingLeft=4;spacingRight=4;overflow=hidden;rotatable=0;points=[[0,0.5],[1,0.5]];portConstraint=eastwest;whiteSpace=wrap;html=1;" parent="WWQ-MBUYeXolELqLjDh3-5" vertex="1">
          <mxGeometry y="52" width="140" height="26" as="geometry" />
        </mxCell>
        <mxCell id="WWQ-MBUYeXolELqLjDh3-8" value="email" style="text;strokeColor=none;fillColor=none;align=left;verticalAlign=top;spacingLeft=4;spacingRight=4;overflow=hidden;rotatable=0;points=[[0,0.5],[1,0.5]];portConstraint=eastwest;whiteSpace=wrap;html=1;" parent="WWQ-MBUYeXolELqLjDh3-5" vertex="1">
          <mxGeometry y="78" width="140" height="26" as="geometry" />
        </mxCell>
        <mxCell id="WWQ-MBUYeXolELqLjDh3-10" value="" style="edgeStyle=entityRelationEdgeStyle;fontSize=12;html=1;endArrow=ERoneToMany;rounded=0;entryX=1;entryY=0.5;entryDx=0;entryDy=0;exitX=0;exitY=0.5;exitDx=0;exitDy=0;" parent="1" source="WWQ-MBUYeXolELqLjDh3-7" target="WWQ-MBUYeXolELqLjDh3-1" edge="1">
          <mxGeometry width="100" height="100" relative="1" as="geometry">
            <mxPoint x="135" y="233" as="sourcePoint" />
            <mxPoint x="235" y="133" as="targetPoint" />
          </mxGeometry>
        </mxCell>
      </root>
    </mxGraphModel>
  </diagram>
</mxfile>
